<svg xmlns="http://www.w3.org/2000/svg" viewBox="0 0 128 128"><circle cx="64.0" cy="64.0" r="64.0" fill="#FFF7ED"/><g transform="translate(0.000,-1.000) scale(0.250000)"><path d="M96,96 L186,150 L256,185 L326,150 L416,96 L396,250 L256,440 L116,250 Z" fill="#D97706"/><path d="M132,120 L186,150 L158,182 Z" fill="#7C3F16"/><path d="M380,120 L326,150 L354,182 Z" fill="#7C3F16"/><path d="M198,250 L314,250 L256,430 Z" fill="#FFF7ED"/><path d="M192,228 L232,222 L214,250 Z" fill="#2B160B"/><circle cx="306" cy="236" r="30" fill="#7C3F16"/><circle cx="306" cy="236" r="22" fill="#0E2540"/><circle cx="306" cy="236" r="13" fill="#2563EB"/><circle cx="306" cy="236" r="6" fill="#7DD3FC"/><path d="M243,372 L269,372 L256,392 Z" fill="#2B160B"/></g></svg>