<svg xmlns="http://www.w3.org/2000/svg" viewBox="0 0 620 1342" width="620" height="1342" role="img" aria-label="Platzhalter: Ma&#223;arbeit. Eine Anwendung genau f&#252;r Ihre Aufgabe."><rect width="620" height="1342" fill="#FBF7F2"/><rect x="31" y="31" width="558" height="1280" rx="22" fill="#FFF7ED" stroke="#E7D8C6" stroke-width="2" stroke-dasharray="10 8"/><g transform="translate(180 510) scale(2.6000)" color="#7C3F16"><path fill="none" stroke="currentColor" stroke-width="3.4" stroke-linecap="round" stroke-linejoin="round" d="M22 78 58 42"/><path fill="none" stroke="currentColor" stroke-width="3.4" stroke-linecap="round" stroke-linejoin="round" d="M52 36l12 12 8-8a9 9 0 0 0-12-12z"/><path fill="none" stroke="currentColor" stroke-width="3.4" stroke-linecap="round" stroke-linejoin="round" d="M18 22h30v10H18z"/><path fill="none" stroke="currentColor" stroke-width="3.4" stroke-linecap="round" stroke-linejoin="round" d="M26 22v10M34 22v10M42 22v10"/></g><path transform="translate(217.180,832.000) scale(0.034000,-0.034000)" fill="#2B160B" d="M857 702V0H686V421L529 0H391L233 422V0H62V702H264L461 216L656 702Z"/><path transform="translate(248.392,832.000) scale(0.034000,-0.034000)" fill="#2B160B" d="M274 566Q333 566 377.5 542.0Q422 518 446 479V558H617V0H446V79Q421 40 376.5 16.0Q332 -8 273 -8Q205 -8 149.0 27.5Q93 63 60.5 128.5Q28 194 28 280Q28 366 60.5 431.0Q93 496 149.0 531.0Q205 566 274 566ZM324 417Q273 417 237.5 380.5Q202 344 202 280Q202 216 237.5 178.5Q273 141 324 141Q375 141 410.5 178.0Q446 215 446 279Q446 343 410.5 380.0Q375 417 324 417Z"/><path transform="translate(271.478,832.000) scale(0.034000,-0.034000)" fill="#2B160B" d="M333 768Q408 768 465.5 743.5Q523 719 554.5 677.0Q586 635 586 586Q586 541 566.0 509.5Q546 478 511 444Q508 441 497.0 429.5Q486 418 481.0 409.5Q476 401 476 394Q476 380 493.5 368.0Q511 356 568 335Q645 306 678.5 267.0Q712 228 712 168Q712 115 685.0 75.0Q658 35 608.5 12.5Q559 -10 494 -10Q395 -10 334.0 39.5Q273 89 261 181H418Q422 150 441.0 132.0Q460 114 491 114Q518 114 532.5 125.0Q547 136 547 158Q547 181 530.0 196.5Q513 212 464 229Q378 260 341.5 290.5Q305 321 305 366Q305 397 320.5 421.0Q336 445 367 478Q392 505 404.0 522.5Q416 540 416 560Q416 591 391.0 608.5Q366 626 324 626Q271 626 245.0 599.0Q219 572 219 522V0H49V534Q49 603 83.5 656.0Q118 709 182.0 738.5Q246 768 333 768Z"/><path transform="translate(297.318,832.000) scale(0.034000,-0.034000)" fill="#2B160B" d="M274 566Q333 566 377.5 542.0Q422 518 446 479V558H617V0H446V79Q421 40 376.5 16.0Q332 -8 273 -8Q205 -8 149.0 27.5Q93 63 60.5 128.5Q28 194 28 280Q28 366 60.5 431.0Q93 496 149.0 531.0Q205 566 274 566ZM324 417Q273 417 237.5 380.5Q202 344 202 280Q202 216 237.5 178.5Q273 141 324 141Q375 141 410.5 178.0Q446 215 446 279Q446 343 410.5 380.0Q375 417 324 417Z"/><path transform="translate(320.404,832.000) scale(0.034000,-0.034000)" fill="#2B160B" d="M408 564V383H361Q297 383 265.0 355.5Q233 328 233 259V0H62V558H233V465Q263 511 308.0 537.5Q353 564 408 564Z"/><path transform="translate(334.956,832.000) scale(0.034000,-0.034000)" fill="#2B160B" d="M405 566Q474 566 530.0 531.0Q586 496 618.5 431.0Q651 366 651 280Q651 194 618.5 128.5Q586 63 530.0 27.5Q474 -8 405 -8Q346 -8 302.0 15.5Q258 39 233 78V0H62V740H233V479Q257 518 302.0 542.0Q347 566 405 566ZM354 417Q303 417 267.5 380.0Q232 343 232 279Q232 215 267.5 178.0Q303 141 354 141Q405 141 441.0 178.5Q477 216 477 280Q477 344 441.5 380.5Q406 417 354 417Z"/><path transform="translate(358.042,832.000) scale(0.034000,-0.034000)" fill="#2B160B" d="M585 238H198Q202 186 231.5 158.5Q261 131 304 131Q368 131 393 185H575Q561 130 524.5 86.0Q488 42 433.0 17.0Q378 -8 310 -8Q228 -8 164.0 27.0Q100 62 64.0 127.0Q28 192 28 279Q28 366 63.5 431.0Q99 496 163.0 531.0Q227 566 310 566Q391 566 454.0 532.0Q517 498 552.5 435.0Q588 372 588 288Q588 264 585 238ZM413 333Q413 377 383.0 403.0Q353 429 308 429Q265 429 235.5 404.0Q206 379 199 333Z"/><path transform="translate(378.986,832.000) scale(0.034000,-0.034000)" fill="#2B160B" d="M46 708Q46 748 74.5 774.5Q103 801 148 801Q192 801 220.5 774.5Q249 748 249 708Q249 669 220.5 642.5Q192 616 148 616Q103 616 74.5 642.5Q46 669 46 708ZM233 558V0H62V558Z"/><path transform="translate(389.016,832.000) scale(0.034000,-0.034000)" fill="#2B160B" d="M373 145V0H286Q193 0 141.0 45.5Q89 91 89 194V416H21V558H89V694H260V558H372V416H260V192Q260 167 272.0 156.0Q284 145 312 145Z"/><path transform="translate(105.137,886.000) scale(0.010254,-0.010254)" fill="#7C3F16" d="M180 0V1490H1088V1322H370V836H1039V668H370V168H1097V0Z"/><path transform="translate(117.760,886.000) scale(0.010254,-0.010254)" fill="#7C3F16" d="M158 0V1118H338V0ZM249 1301Q198 1301 161.0 1336.0Q124 1371 124 1420Q124 1470 161.0 1504.5Q198 1539 249 1539Q301 1539 338.0 1504.5Q375 1470 375 1420Q375 1371 338.0 1336.0Q301 1301 249 1301Z"/><path transform="translate(122.846,886.000) scale(0.010254,-0.010254)" fill="#7C3F16" d="M338 670V0H158V1118H331L332 847H307Q358 1002 452.5 1067.0Q547 1132 674 1132Q787 1132 872.0 1085.5Q957 1039 1004.5 945.5Q1052 852 1052 710V0H872V695Q872 824 804.5 897.0Q737 970 620 970Q540 970 476.0 935.0Q412 900 375.0 833.0Q338 766 338 670Z"/><path transform="translate(135.253,886.000) scale(0.010254,-0.010254)" fill="#7C3F16" d="M628 -24Q466 -24 348.5 48.0Q231 120 167.5 249.0Q104 378 104 550Q104 722 166.0 853.0Q228 984 341.5 1058.0Q455 1132 607 1132Q696 1132 782.5 1102.5Q869 1073 939.5 1007.5Q1010 942 1052.0 835.0Q1094 728 1094 573V498H226V650H997L913 594Q913 704 878.5 789.5Q844 875 776.0 923.5Q708 972 607 972Q506 972 434.0 922.5Q362 873 324.0 793.5Q286 714 286 623V522Q286 398 329.0 311.5Q372 225 449.5 180.5Q527 136 629 136Q695 136 749.0 155.0Q803 174 842.0 212.5Q881 251 902 308L1076 260Q1050 176 988.0 112.0Q926 48 834.5 12.0Q743 -24 628 -24Z"/><path transform="translate(153.402,886.000) scale(0.010254,-0.010254)" fill="#7C3F16" d="M52 0 593 1490H813L1361 0H1161L845 884Q816 966 777.5 1088.5Q739 1211 684 1401H720Q666 1209 626.5 1084.5Q587 960 561 884L254 0ZM324 416V582H1089V416Z"/><path transform="translate(167.891,886.000) scale(0.010254,-0.010254)" fill="#7C3F16" d="M338 670V0H158V1118H331L332 847H307Q358 1002 452.5 1067.0Q547 1132 674 1132Q787 1132 872.0 1085.5Q957 1039 1004.5 945.5Q1052 852 1052 710V0H872V695Q872 824 804.5 897.0Q737 970 620 970Q540 970 476.0 935.0Q412 900 375.0 833.0Q338 766 338 670Z"/><path transform="translate(180.298,886.000) scale(0.010254,-0.010254)" fill="#7C3F16" d="M409 0 70 1118H261L397 630Q425 530 457.0 403.5Q489 277 520 117H489Q519 270 550.0 397.0Q581 524 610 630L744 1118H936L1068 630Q1096 527 1126.5 400.5Q1157 274 1187 117H1155Q1187 272 1218.5 398.5Q1250 525 1279 630L1415 1118H1606L1267 0H1088L943 506Q921 583 900.0 663.0Q879 743 859.0 827.0Q839 911 818 998H858Q838 912 817.5 827.5Q797 743 776.0 662.0Q755 581 733 506L588 0Z"/><path transform="translate(197.484,886.000) scale(0.010254,-0.010254)" fill="#7C3F16" d="M628 -24Q466 -24 348.5 48.0Q231 120 167.5 249.0Q104 378 104 550Q104 722 166.0 853.0Q228 984 341.5 1058.0Q455 1132 607 1132Q696 1132 782.5 1102.5Q869 1073 939.5 1007.5Q1010 942 1052.0 835.0Q1094 728 1094 573V498H226V650H997L913 594Q913 704 878.5 789.5Q844 875 776.0 923.5Q708 972 607 972Q506 972 434.0 922.5Q362 873 324.0 793.5Q286 714 286 623V522Q286 398 329.0 311.5Q372 225 449.5 180.5Q527 136 629 136Q695 136 749.0 155.0Q803 174 842.0 212.5Q881 251 902 308L1076 260Q1050 176 988.0 112.0Q926 48 834.5 12.0Q743 -24 628 -24Z"/><path transform="translate(209.727,886.000) scale(0.010254,-0.010254)" fill="#7C3F16" d="M338 670V0H158V1118H331L332 847H307Q358 1002 452.5 1067.0Q547 1132 674 1132Q787 1132 872.0 1085.5Q957 1039 1004.5 945.5Q1052 852 1052 710V0H872V695Q872 824 804.5 897.0Q737 970 620 970Q540 970 476.0 935.0Q412 900 375.0 833.0Q338 766 338 670Z"/><path transform="translate(222.134,886.000) scale(0.010254,-0.010254)" fill="#7C3F16" d="M577 -24Q438 -24 331.0 47.0Q224 118 164.0 248.0Q104 378 104 556Q104 733 164.5 862.5Q225 992 332.0 1062.0Q439 1132 578 1132Q687 1132 751.0 1096.0Q815 1060 849.5 1014.5Q884 969 902 939H916V1490H1096V0H922V173H902Q884 142 848.5 95.5Q813 49 748.5 12.5Q684 -24 577 -24ZM604 137Q706 137 776.0 190.5Q846 244 882.0 339.0Q918 434 918 558Q918 682 882.5 774.5Q847 867 777.0 919.0Q707 971 604 971Q498 971 427.5 916.0Q357 861 322.0 767.5Q287 674 287 558Q287 441 322.5 345.5Q358 250 429.0 193.5Q500 137 604 137Z"/><path transform="translate(234.993,886.000) scale(0.010254,-0.010254)" fill="#7C3F16" d="M537 -14Q424 -14 338.5 32.5Q253 79 205.5 173.0Q158 267 158 408V1118H338V423Q338 294 406.0 221.0Q474 148 591 148Q671 148 734.5 183.0Q798 218 835.0 285.5Q872 353 872 448V1118H1053V0H879V271H903Q851 114 755.5 50.0Q660 -14 537 -14Z"/><path transform="translate(247.410,886.000) scale(0.010254,-0.010254)" fill="#7C3F16" d="M338 670V0H158V1118H331L332 847H307Q358 1002 452.5 1067.0Q547 1132 674 1132Q787 1132 872.0 1085.5Q957 1039 1004.5 945.5Q1052 852 1052 710V0H872V695Q872 824 804.5 897.0Q737 970 620 970Q540 970 476.0 935.0Q412 900 375.0 833.0Q338 766 338 670Z"/><path transform="translate(259.817,886.000) scale(0.010254,-0.010254)" fill="#7C3F16" d="M611 -442Q487 -442 396.5 -410.5Q306 -379 246.0 -327.0Q186 -275 151 -214L297 -120Q321 -152 356.5 -191.0Q392 -230 452.5 -257.5Q513 -285 611 -285Q745 -285 831.5 -221.0Q918 -157 918 -19V205H901Q882 173 847.5 129.0Q813 85 748.5 51.5Q684 18 576 18Q442 18 335.0 81.5Q228 145 166.0 267.0Q104 389 104 564Q104 737 165.0 864.5Q226 992 333.5 1062.0Q441 1132 580 1132Q688 1132 752.5 1096.5Q817 1061 852.0 1015.0Q887 969 906 939H923V1118H1098V-29Q1098 -173 1033.0 -264.5Q968 -356 857.5 -399.0Q747 -442 611 -442ZM606 178Q708 178 778.0 224.5Q848 271 884.0 358.5Q920 446 920 568Q920 687 884.5 777.5Q849 868 779.0 919.5Q709 971 606 971Q500 971 429.0 916.5Q358 862 322.5 771.0Q287 680 287 568Q287 453 323.0 365.0Q359 277 430.0 227.5Q501 178 606 178Z"/><path transform="translate(278.603,886.000) scale(0.010254,-0.010254)" fill="#7C3F16" d="M611 -442Q487 -442 396.5 -410.5Q306 -379 246.0 -327.0Q186 -275 151 -214L297 -120Q321 -152 356.5 -191.0Q392 -230 452.5 -257.5Q513 -285 611 -285Q745 -285 831.5 -221.0Q918 -157 918 -19V205H901Q882 173 847.5 129.0Q813 85 748.5 51.5Q684 18 576 18Q442 18 335.0 81.5Q228 145 166.0 267.0Q104 389 104 564Q104 737 165.0 864.5Q226 992 333.5 1062.0Q441 1132 580 1132Q688 1132 752.5 1096.5Q817 1061 852.0 1015.0Q887 969 906 939H923V1118H1098V-29Q1098 -173 1033.0 -264.5Q968 -356 857.5 -399.0Q747 -442 611 -442ZM606 178Q708 178 778.0 224.5Q848 271 884.0 358.5Q920 446 920 568Q920 687 884.5 777.5Q849 868 779.0 919.5Q709 971 606 971Q500 971 429.0 916.5Q358 862 322.5 771.0Q287 680 287 568Q287 453 323.0 365.0Q359 277 430.0 227.5Q501 178 606 178Z"/><path transform="translate(291.481,886.000) scale(0.010254,-0.010254)" fill="#7C3F16" d="M628 -24Q466 -24 348.5 48.0Q231 120 167.5 249.0Q104 378 104 550Q104 722 166.0 853.0Q228 984 341.5 1058.0Q455 1132 607 1132Q696 1132 782.5 1102.5Q869 1073 939.5 1007.5Q1010 942 1052.0 835.0Q1094 728 1094 573V498H226V650H997L913 594Q913 704 878.5 789.5Q844 875 776.0 923.5Q708 972 607 972Q506 972 434.0 922.5Q362 873 324.0 793.5Q286 714 286 623V522Q286 398 329.0 311.5Q372 225 449.5 180.5Q527 136 629 136Q695 136 749.0 155.0Q803 174 842.0 212.5Q881 251 902 308L1076 260Q1050 176 988.0 112.0Q926 48 834.5 12.0Q743 -24 628 -24Z"/><path transform="translate(303.725,886.000) scale(0.010254,-0.010254)" fill="#7C3F16" d="M338 670V0H158V1118H331L332 847H307Q358 1002 452.5 1067.0Q547 1132 674 1132Q787 1132 872.0 1085.5Q957 1039 1004.5 945.5Q1052 852 1052 710V0H872V695Q872 824 804.5 897.0Q737 970 620 970Q540 970 476.0 935.0Q412 900 375.0 833.0Q338 766 338 670Z"/><path transform="translate(316.132,886.000) scale(0.010254,-0.010254)" fill="#7C3F16" d="M471 -26Q365 -26 278.5 14.0Q192 54 141.0 131.0Q90 208 90 318Q90 414 128.0 474.0Q166 534 229.5 568.5Q293 603 370.0 620.0Q447 637 525 647Q625 660 688.0 667.0Q751 674 781.5 691.0Q812 708 812 749V755Q812 825 786.0 873.5Q760 922 708.0 948.0Q656 974 578 974Q498 974 441.0 949.0Q384 924 348.5 886.5Q313 849 295 810L122 867Q165 969 238.0 1026.5Q311 1084 399.0 1108.0Q487 1132 573 1132Q629 1132 700.5 1118.5Q772 1105 838.5 1065.0Q905 1025 948.5 946.5Q992 868 992 737V0H815V152H803Q784 113 742.0 71.5Q700 30 633.0 2.0Q566 -26 471 -26ZM502 133Q602 133 671.0 172.0Q740 211 776.0 273.5Q812 336 812 404V559Q801 546 764.0 535.5Q727 525 679.5 517.0Q632 509 587.5 503.5Q543 498 517 495Q452 487 395.5 467.5Q339 448 305.0 410.5Q271 373 271 309Q271 251 301.0 212.0Q331 173 383.0 153.0Q435 133 502 133Z"/><path transform="translate(327.924,886.000) scale(0.010254,-0.010254)" fill="#7C3F16" d="M537 -14Q424 -14 338.5 32.5Q253 79 205.5 173.0Q158 267 158 408V1118H338V423Q338 294 406.0 221.0Q474 148 591 148Q671 148 734.5 183.0Q798 218 835.0 285.5Q872 353 872 448V1118H1053V0H879V271H903Q851 114 755.5 50.0Q660 -14 537 -14Z"/><path transform="translate(346.248,886.000) scale(0.010254,-0.010254)" fill="#7C3F16" d="M678 1118V964H20V1118ZM240 0V1267Q240 1364 285.5 1429.0Q331 1494 404.0 1527.0Q477 1560 558 1560Q622 1560 664.0 1549.5Q706 1539 726 1530L676 1376Q662 1381 639.5 1387.0Q617 1393 579 1393Q496 1393 458.0 1350.5Q420 1308 420 1227V0Z"/><path transform="translate(354.020,886.000) scale(0.010254,-0.010254)" fill="#7C3F16" d="M537 -14Q424 -14 338.5 32.5Q253 79 205.5 173.0Q158 267 158 408V1118H338V423Q338 294 406.0 221.0Q474 148 591 148Q671 148 734.5 183.0Q798 218 835.0 285.5Q872 353 872 448V1118H1053V0H879V271H903Q851 114 755.5 50.0Q660 -14 537 -14ZM816 1301Q767 1301 732.0 1336.0Q697 1371 697 1420Q697 1469 732.0 1503.5Q767 1538 816 1538Q865 1538 899.5 1503.5Q934 1469 934 1420Q934 1371 899.5 1336.0Q865 1301 816 1301ZM395 1301Q346 1301 311.0 1336.0Q276 1371 276 1420Q276 1469 311.0 1503.5Q346 1538 395 1538Q444 1538 478.5 1503.5Q513 1469 513 1420Q513 1371 478.5 1336.0Q444 1301 395 1301Z"/><path transform="translate(366.438,886.000) scale(0.010254,-0.010254)" fill="#7C3F16" d="M158 0V1118H332V946H344Q375 1031 454.5 1082.5Q534 1134 634 1134Q654 1134 681.5 1133.0Q709 1132 725 1131V950Q717 952 685.0 956.0Q653 960 617 960Q537 960 473.5 926.5Q410 893 374.0 834.5Q338 776 338 700V0Z"/><path transform="translate(380.250,886.000) scale(0.010254,-0.010254)" fill="#7C3F16" d="M370 1490V0H180V1490Z"/><path transform="translate(385.889,886.000) scale(0.010254,-0.010254)" fill="#7C3F16" d="M338 670V0H158V1490H338V847H307Q358 1002 452.5 1067.0Q547 1132 674 1132Q787 1132 872.5 1085.5Q958 1039 1005.5 945.5Q1053 852 1053 710V0H872V695Q872 824 804.5 897.0Q737 970 620 970Q540 970 476.0 935.0Q412 900 375.0 833.0Q338 766 338 670Z"/><path transform="translate(398.307,886.000) scale(0.010254,-0.010254)" fill="#7C3F16" d="M158 0V1118H332V946H344Q375 1031 454.5 1082.5Q534 1134 634 1134Q654 1134 681.5 1133.0Q709 1132 725 1131V950Q717 952 685.0 956.0Q653 960 617 960Q537 960 473.5 926.5Q410 893 374.0 834.5Q338 776 338 700V0Z"/><path transform="translate(406.212,886.000) scale(0.010254,-0.010254)" fill="#7C3F16" d="M628 -24Q466 -24 348.5 48.0Q231 120 167.5 249.0Q104 378 104 550Q104 722 166.0 853.0Q228 984 341.5 1058.0Q455 1132 607 1132Q696 1132 782.5 1102.5Q869 1073 939.5 1007.5Q1010 942 1052.0 835.0Q1094 728 1094 573V498H226V650H997L913 594Q913 704 878.5 789.5Q844 875 776.0 923.5Q708 972 607 972Q506 972 434.0 922.5Q362 873 324.0 793.5Q286 714 286 623V522Q286 398 329.0 311.5Q372 225 449.5 180.5Q527 136 629 136Q695 136 749.0 155.0Q803 174 842.0 212.5Q881 251 902 308L1076 260Q1050 176 988.0 112.0Q926 48 834.5 12.0Q743 -24 628 -24Z"/><path transform="translate(424.362,886.000) scale(0.010254,-0.010254)" fill="#7C3F16" d="M52 0 593 1490H813L1361 0H1161L845 884Q816 966 777.5 1088.5Q739 1211 684 1401H720Q666 1209 626.5 1084.5Q587 960 561 884L254 0ZM324 416V582H1089V416Z"/><path transform="translate(438.851,886.000) scale(0.010254,-0.010254)" fill="#7C3F16" d="M537 -14Q424 -14 338.5 32.5Q253 79 205.5 173.0Q158 267 158 408V1118H338V423Q338 294 406.0 221.0Q474 148 591 148Q671 148 734.5 183.0Q798 218 835.0 285.5Q872 353 872 448V1118H1053V0H879V271H903Q851 114 755.5 50.0Q660 -14 537 -14Z"/><path transform="translate(451.268,886.000) scale(0.010254,-0.010254)" fill="#7C3F16" d="M678 1118V964H20V1118ZM240 0V1267Q240 1364 285.5 1429.0Q331 1494 404.0 1527.0Q477 1560 558 1560Q622 1560 664.0 1549.5Q706 1539 726 1530L676 1376Q662 1381 639.5 1387.0Q617 1393 579 1393Q496 1393 458.0 1350.5Q420 1308 420 1227V0Z"/><path transform="translate(459.041,886.000) scale(0.010254,-0.010254)" fill="#7C3F16" d="M611 -442Q487 -442 396.5 -410.5Q306 -379 246.0 -327.0Q186 -275 151 -214L297 -120Q321 -152 356.5 -191.0Q392 -230 452.5 -257.5Q513 -285 611 -285Q745 -285 831.5 -221.0Q918 -157 918 -19V205H901Q882 173 847.5 129.0Q813 85 748.5 51.5Q684 18 576 18Q442 18 335.0 81.5Q228 145 166.0 267.0Q104 389 104 564Q104 737 165.0 864.5Q226 992 333.5 1062.0Q441 1132 580 1132Q688 1132 752.5 1096.5Q817 1061 852.0 1015.0Q887 969 906 939H923V1118H1098V-29Q1098 -173 1033.0 -264.5Q968 -356 857.5 -399.0Q747 -442 611 -442ZM606 178Q708 178 778.0 224.5Q848 271 884.0 358.5Q920 446 920 568Q920 687 884.5 777.5Q849 868 779.0 919.5Q709 971 606 971Q500 971 429.0 916.5Q358 862 322.5 771.0Q287 680 287 568Q287 453 323.0 365.0Q359 277 430.0 227.5Q501 178 606 178Z"/><path transform="translate(471.919,886.000) scale(0.010254,-0.010254)" fill="#7C3F16" d="M471 -26Q365 -26 278.5 14.0Q192 54 141.0 131.0Q90 208 90 318Q90 414 128.0 474.0Q166 534 229.5 568.5Q293 603 370.0 620.0Q447 637 525 647Q625 660 688.0 667.0Q751 674 781.5 691.0Q812 708 812 749V755Q812 825 786.0 873.5Q760 922 708.0 948.0Q656 974 578 974Q498 974 441.0 949.0Q384 924 348.5 886.5Q313 849 295 810L122 867Q165 969 238.0 1026.5Q311 1084 399.0 1108.0Q487 1132 573 1132Q629 1132 700.5 1118.5Q772 1105 838.5 1065.0Q905 1025 948.5 946.5Q992 868 992 737V0H815V152H803Q784 113 742.0 71.5Q700 30 633.0 2.0Q566 -26 471 -26ZM502 133Q602 133 671.0 172.0Q740 211 776.0 273.5Q812 336 812 404V559Q801 546 764.0 535.5Q727 525 679.5 517.0Q632 509 587.5 503.5Q543 498 517 495Q452 487 395.5 467.5Q339 448 305.0 410.5Q271 373 271 309Q271 251 301.0 212.0Q331 173 383.0 153.0Q435 133 502 133Z"/><path transform="translate(483.711,886.000) scale(0.010254,-0.010254)" fill="#7C3F16" d="M677 -24Q571 -24 506.0 12.5Q441 49 406.0 95.5Q371 142 352 173H332V0H158V1490H338V939H352Q371 969 405.0 1014.5Q439 1060 503.0 1096.0Q567 1132 676 1132Q816 1132 922.5 1062.0Q1029 992 1089.5 862.5Q1150 733 1150 556Q1150 378 1090.0 248.0Q1030 118 923.5 47.0Q817 -24 677 -24ZM650 137Q755 137 825.5 193.5Q896 250 931.5 345.5Q967 441 967 558Q967 674 932.0 767.5Q897 861 826.5 916.0Q756 971 650 971Q547 971 477.0 919.0Q407 867 371.5 774.5Q336 682 336 558Q336 434 372.0 339.0Q408 244 478.5 190.5Q549 137 650 137Z"/><path transform="translate(496.570,886.000) scale(0.010254,-0.010254)" fill="#7C3F16" d="M628 -24Q466 -24 348.5 48.0Q231 120 167.5 249.0Q104 378 104 550Q104 722 166.0 853.0Q228 984 341.5 1058.0Q455 1132 607 1132Q696 1132 782.5 1102.5Q869 1073 939.5 1007.5Q1010 942 1052.0 835.0Q1094 728 1094 573V498H226V650H997L913 594Q913 704 878.5 789.5Q844 875 776.0 923.5Q708 972 607 972Q506 972 434.0 922.5Q362 873 324.0 793.5Q286 714 286 623V522Q286 398 329.0 311.5Q372 225 449.5 180.5Q527 136 629 136Q695 136 749.0 155.0Q803 174 842.0 212.5Q881 251 902 308L1076 260Q1050 176 988.0 112.0Q926 48 834.5 12.0Q743 -24 628 -24Z"/><path transform="translate(508.813,886.000) scale(0.010254,-0.010254)" fill="#7C3F16" d="M295 -13Q239 -13 199.5 26.5Q160 66 160 122Q160 178 199.5 217.5Q239 257 295 257Q351 257 390.5 217.5Q430 178 430 122Q430 66 390.5 26.5Q351 -13 295 -13Z"/><rect x="263.20" y="914" width="93.60" height="3" rx="1.5" fill="#8A6A1E"/></svg>
