<svg xmlns="http://www.w3.org/2000/svg" viewBox="0 20 1475.5500000000002 420.48837209302326"><g transform="translate(-73.256,-33.721) scale(0.872093)"><path d="M96,96 L186,150 L256,185 L326,150 L416,96 L396,250 L256,440 L116,250 Z" fill="#D97706"/><path d="M132,120 L186,150 L158,182 Z" fill="#7C3F16"/><path d="M380,120 L326,150 L354,182 Z" fill="#7C3F16"/><path d="M198,250 L314,250 L256,430 Z" fill="#FFF7ED"/><path d="M192,228 L232,222 L214,250 Z" fill="#2B160B"/><circle cx="306" cy="236" r="30" fill="#7C3F16"/><circle cx="306" cy="236" r="22" fill="#0E2540"/><circle cx="306" cy="236" r="13" fill="#2563EB"/><circle cx="306" cy="236" r="6" fill="#7DD3FC"/><path d="M243,372 L269,372 L256,392 Z" fill="#2B160B"/><path fill="#FFF7ED" d="M256,434 C264.8,469.2 264.8,469.2 300,478 C264.8,486.8 264.8,486.8 256,522 C247.2,486.8 247.2,486.8 212,478 C247.2,469.2 247.2,469.2 256,434 Z"/><path fill="#13869E" d="M256,440 C263.6,470.4 263.6,470.4 294,478 C263.6,485.6 263.6,485.6 256,516 C248.4,485.6 248.4,485.6 218,478 C248.4,470.4 248.4,470.4 256,440 Z"/><path fill="#FFF7ED" d="M190,467 C195.4,488.6 195.4,488.6 217,494 C195.4,499.4 195.4,499.4 190,521 C184.6,499.4 184.6,499.4 163,494 C184.6,488.6 184.6,488.6 190,467 Z"/><path fill="#13869E" d="M190,472 C194.4,489.6 194.4,489.6 212,494 C194.4,498.4 194.4,498.4 190,516 C185.6,498.4 185.6,498.4 168,494 C185.6,489.6 185.6,489.6 190,472 Z"/><path fill="#FFF7ED" d="M316,468 C320.4,485.6 320.4,485.6 338,490 C320.4,494.4 320.4,494.4 316,512 C311.6,494.4 311.6,494.4 294,490 C311.6,485.6 311.6,485.6 316,468 Z"/><path fill="#13869E" d="M316,473 C319.4,486.6 319.4,486.6 333,490 C319.4,493.4 319.4,493.4 316,507 C312.6,493.4 312.6,493.4 299,490 C312.6,486.6 312.6,486.6 316,473 Z"/><path fill="#FFF7ED" d="M392,96 C399.2,124.8 399.2,124.8 428,132 C399.2,139.2 399.2,139.2 392,168 C384.8,139.2 384.8,139.2 356,132 C384.8,124.8 384.8,124.8 392,96 Z"/><path fill="#13869E" d="M392,102 C398.0,126.0 398.0,126.0 422,132 C398.0,138.0 398.0,138.0 392,162 C386.0,138.0 386.0,138.0 362,132 C386.0,126.0 386.0,126.0 392,102 Z"/><path fill="#FFF7ED" d="M352,156 C356.4,173.6 356.4,173.6 374,178 C356.4,182.4 356.4,182.4 352,200 C347.6,182.4 347.6,182.4 330,178 C347.6,173.6 347.6,173.6 352,156 Z"/><path fill="#13869E" d="M352,161 C355.4,174.6 355.4,174.6 369,178 C355.4,181.4 355.4,181.4 352,195 C348.6,181.4 348.6,181.4 335,178 C348.6,174.6 348.6,174.6 352,161 Z"/></g><path transform="translate(330.000,265.000) scale(0.190000,-0.190000)" fill="#FFF7ED" d="M386 710Q511 710 600.0 644.0Q689 578 719 464H531Q510 508 471.5 531.0Q433 554 384 554Q305 554 256.0 499.0Q207 444 207 352Q207 260 256.0 205.0Q305 150 384 150Q433 150 471.5 173.0Q510 196 531 240H719Q689 126 600.0 60.5Q511 -5 386 -5Q284 -5 203.5 40.5Q123 86 78.0 167.0Q33 248 33 352Q33 456 78.0 537.5Q123 619 203.5 664.5Q284 710 386 710Z"/><path transform="translate(474.780,265.000) scale(0.190000,-0.190000)" fill="#FFF7ED" d="M233 740V0H62V740Z"/><path transform="translate(530.830,265.000) scale(0.190000,-0.190000)" fill="#FFF7ED" d="M585 238H198Q202 186 231.5 158.5Q261 131 304 131Q368 131 393 185H575Q561 130 524.5 86.0Q488 42 433.0 17.0Q378 -8 310 -8Q228 -8 164.0 27.0Q100 62 64.0 127.0Q28 192 28 279Q28 366 63.5 431.0Q99 496 163.0 531.0Q227 566 310 566Q391 566 454.0 532.0Q517 498 552.5 435.0Q588 372 588 288Q588 264 585 238ZM413 333Q413 377 383.0 403.0Q353 429 308 429Q265 429 235.5 404.0Q206 379 199 333Z"/><path transform="translate(647.870,265.000) scale(0.190000,-0.190000)" fill="#FFF7ED" d="M274 566Q333 566 377.5 542.0Q422 518 446 479V558H617V0H446V79Q421 40 376.5 16.0Q332 -8 273 -8Q205 -8 149.0 27.5Q93 63 60.5 128.5Q28 194 28 280Q28 366 60.5 431.0Q93 496 149.0 531.0Q205 566 274 566ZM324 417Q273 417 237.5 380.5Q202 344 202 280Q202 216 237.5 178.5Q273 141 324 141Q375 141 410.5 178.0Q446 215 446 279Q446 343 410.5 380.0Q375 417 324 417Z"/><path transform="translate(776.880,265.000) scale(0.190000,-0.190000)" fill="#FFF7ED" d="M617 326V0H447V303Q447 359 418.0 390.0Q389 421 340 421Q291 421 262.0 390.0Q233 359 233 303V0H62V558H233V484Q259 521 303.0 542.5Q347 564 402 564Q500 564 558.5 500.5Q617 437 617 326Z"/><path transform="translate(904.940,265.000) scale(0.190000,-0.190000)" fill="#1888A0" d="M693 351Q693 248 647.5 168.0Q602 88 518.5 44.0Q435 0 325 0H62V702H325Q436 702 519.0 658.0Q602 614 647.5 534.5Q693 455 693 351ZM519 351Q519 448 465.0 502.0Q411 556 314 556H233V148H314Q411 148 465.0 201.0Q519 254 519 351Z"/><path transform="translate(1043.070,265.000) scale(0.190000,-0.190000)" fill="#1888A0" d="M585 238H198Q202 186 231.5 158.5Q261 131 304 131Q368 131 393 185H575Q561 130 524.5 86.0Q488 42 433.0 17.0Q378 -8 310 -8Q228 -8 164.0 27.0Q100 62 64.0 127.0Q28 192 28 279Q28 366 63.5 431.0Q99 496 163.0 531.0Q227 566 310 566Q391 566 454.0 532.0Q517 498 552.5 435.0Q588 372 588 288Q588 264 585 238ZM413 333Q413 377 383.0 403.0Q353 429 308 429Q265 429 235.5 404.0Q206 379 199 333Z"/><path transform="translate(1160.110,265.000) scale(0.190000,-0.190000)" fill="#1888A0" d="M32 183H201Q204 154 228.0 136.0Q252 118 287 118Q319 118 336.5 130.5Q354 143 354 163Q354 187 329.0 198.5Q304 210 248 224Q188 238 148.0 253.5Q108 269 79.0 302.5Q50 336 50 393Q50 441 76.5 480.5Q103 520 154.5 543.0Q206 566 277 566Q382 566 442.5 514.0Q503 462 512 376H354Q350 405 328.5 422.0Q307 439 272 439Q242 439 226.0 427.5Q210 416 210 396Q210 372 235.5 360.0Q261 348 315 336Q377 320 416.0 304.5Q455 289 484.5 254.5Q514 220 515 162Q515 113 487.5 74.5Q460 36 408.5 14.0Q357 -8 289 -8Q216 -8 159.0 17.0Q102 42 69.0 85.5Q36 129 32 183Z"/><path transform="translate(1266.130,265.000) scale(0.190000,-0.190000)" fill="#1888A0" d="M403 0 233 234V0H62V740H233V331L402 558H613L381 278L615 0Z"/></svg>