<svg xmlns="http://www.w3.org/2000/svg" viewBox="0 20 1530.65 360"><defs><linearGradient id="es-gold" gradientUnits="userSpaceOnUse" x1="330.0" y1="128.2" x2="1439.0" y2="244.5"><stop offset="0" stop-color="#7C3F16"/><stop offset="0.45" stop-color="#8A6A1E"/><stop offset="0.78" stop-color="#B8912F"/><stop offset="1" stop-color="#E9CE8A"/></linearGradient></defs><g transform="translate(-73.256,-33.721) scale(0.872093)"><path d="M96,96 L186,150 L256,185 L326,150 L416,96 L396,250 L256,440 L116,250 Z" fill="#D97706"/><path d="M132,120 L186,150 L158,182 Z" fill="#7C3F16"/><path d="M380,120 L326,150 L354,182 Z" fill="#7C3F16"/><path d="M198,250 L314,250 L256,430 Z" fill="#FFF7ED"/><path d="M192,228 L232,222 L214,250 Z" fill="#2B160B"/><circle cx="306" cy="236" r="30" fill="#7C3F16"/><circle cx="306" cy="236" r="22" fill="#0E2540"/><circle cx="306" cy="236" r="13" fill="#2563EB"/><circle cx="306" cy="236" r="6" fill="#7DD3FC"/><path d="M243,372 L269,372 L256,392 Z" fill="#2B160B"/><g fill="none" stroke="#2B160B" stroke-width="9" stroke-linejoin="round" stroke-linecap="round"><rect x="172" y="267" width="66" height="66" rx="19"/><rect x="276" y="267" width="66" height="66" rx="19"/><path d="M238,292 Q257,282 276,292"/><path d="M172,288 L138,266"/><path d="M342,288 L376,266"/></g></g><path transform="translate(330.000,265.000) scale(0.190000,-0.190000)" fill="url(#es-gold)" d="M233 565V423H462V291H233V137H492V0H62V702H492V565Z"/><path transform="translate(432.790,265.000) scale(0.190000,-0.190000)" fill="url(#es-gold)" d="M46 708Q46 748 74.5 774.5Q103 801 148 801Q192 801 220.5 774.5Q249 748 249 708Q249 669 220.5 642.5Q192 616 148 616Q103 616 74.5 642.5Q46 669 46 708ZM233 558V0H62V558Z"/><path transform="translate(488.840,265.000) scale(0.190000,-0.190000)" fill="url(#es-gold)" d="M617 326V0H447V303Q447 359 418.0 390.0Q389 421 340 421Q291 421 262.0 390.0Q233 359 233 303V0H62V558H233V484Q259 521 303.0 542.5Q347 564 402 564Q500 564 558.5 500.5Q617 437 617 326Z"/><path transform="translate(616.900,265.000) scale(0.190000,-0.190000)" fill="url(#es-gold)" d="M222 141H464V0H31V136L263 417H33V558H459V422Z"/><path transform="translate(711.140,265.000) scale(0.190000,-0.190000)" fill="url(#es-gold)" d="M585 238H198Q202 186 231.5 158.5Q261 131 304 131Q368 131 393 185H575Q561 130 524.5 86.0Q488 42 433.0 17.0Q378 -8 310 -8Q228 -8 164.0 27.0Q100 62 64.0 127.0Q28 192 28 279Q28 366 63.5 431.0Q99 496 163.0 531.0Q227 566 310 566Q391 566 454.0 532.0Q517 498 552.5 435.0Q588 372 588 288Q588 264 585 238ZM413 333Q413 377 383.0 403.0Q353 429 308 429Q265 429 235.5 404.0Q206 379 199 333Z"/><path transform="translate(828.180,265.000) scale(0.190000,-0.190000)" fill="url(#es-gold)" d="M233 740V0H62V740Z"/><path transform="translate(884.230,265.000) scale(0.190000,-0.190000)" fill="url(#es-gold)" d="M42 210H224Q228 171 251.0 150.5Q274 130 311 130Q349 130 371.0 147.5Q393 165 393 196Q393 222 375.5 239.0Q358 256 332.5 267.0Q307 278 260 292Q192 313 149.0 334.0Q106 355 75.0 396.0Q44 437 44 503Q44 601 115.0 656.5Q186 712 300 712Q416 712 487.0 656.5Q558 601 563 502H378Q376 536 353.0 555.5Q330 575 294 575Q263 575 244.0 558.5Q225 542 225 511Q225 477 257.0 458.0Q289 439 357 417Q425 394 467.5 373.0Q510 352 541.0 312.0Q572 272 572 209Q572 149 541.5 100.0Q511 51 453.0 22.0Q395 -7 316 -7Q239 -7 178.0 18.0Q117 43 80.5 92.0Q44 141 42 210Z"/><path transform="translate(1001.080,265.000) scale(0.190000,-0.190000)" fill="url(#es-gold)" d="M373 145V0H286Q193 0 141.0 45.5Q89 91 89 194V416H21V558H89V694H260V558H372V416H260V192Q260 167 272.0 156.0Q284 145 312 145Z"/><path transform="translate(1078.220,265.000) scale(0.190000,-0.190000)" fill="url(#es-gold)" d="M613 558V0H442V76Q416 39 371.5 16.5Q327 -6 273 -6Q209 -6 160.0 22.5Q111 51 84.0 105.0Q57 159 57 232V558H227V255Q227 199 256.0 168.0Q285 137 334 137Q384 137 413.0 168.0Q442 199 442 255V558ZM164 693Q164 724 185.0 745.5Q206 767 237 767Q269 767 290.0 746.0Q311 725 311 693Q311 662 289.5 641.0Q268 620 237 620Q206 620 185.0 641.0Q164 662 164 693ZM364 693Q364 724 385.0 745.5Q406 767 437 767Q469 767 490.0 746.0Q511 725 511 693Q511 662 489.5 641.0Q468 620 437 620Q406 620 385.0 641.0Q364 662 364 693Z"/><path transform="translate(1206.280,265.000) scale(0.190000,-0.190000)" fill="url(#es-gold)" d="M308 566Q413 566 483.5 511.0Q554 456 576 356H394Q371 420 305 420Q258 420 230.0 383.5Q202 347 202 279Q202 211 230.0 174.5Q258 138 305 138Q371 138 394 202H576Q554 104 483.0 48.0Q412 -8 308 -8Q226 -8 162.5 27.0Q99 62 63.5 127.0Q28 192 28 279Q28 366 63.5 431.0Q99 496 162.5 531.0Q226 566 308 566Z"/><path transform="translate(1321.230,265.000) scale(0.190000,-0.190000)" fill="url(#es-gold)" d="M403 0 233 234V0H62V740H233V331L402 558H613L381 278L615 0Z"/></svg>