<svg xmlns="http://www.w3.org/2000/svg" viewBox="0 0 1120 300" role="img" aria-label="EinzelStück – von FehlerFuchs"><defs><linearGradient id="es-gold" x1="0" y1="0" x2="1" y2="0.85"><stop offset="0" stop-color="#7C3F16"/><stop offset="0.45" stop-color="#8A6A1E"/><stop offset="0.78" stop-color="#B8912F"/><stop offset="1" stop-color="#E9CE8A"/></linearGradient></defs><g transform="translate(10,20) scale(0.5)"><polygon points="96,96 186,150 256,185 326,150 416,96 396,250 256,440 116,250" fill="#D97706"/><polygon points="132,120 186,150 158,182" fill="#7C3F16"/><polygon points="380,120 326,150 354,182" fill="#7C3F16"/><polygon points="198,250 314,250 256,430" fill="#FFF7ED"/><polygon points="192,228 232,222 214,250" fill="#2B160B"/><circle cx="306" cy="236" r="30" fill="#7C3F16"/><circle cx="306" cy="236" r="22" fill="#0E2540"/><circle cx="306" cy="236" r="13" fill="#2563EB"/><circle cx="306" cy="236" r="6" fill="#7DD3FC"/><polygon points="243,372 269,372 256,392" fill="#2B160B"/><g fill="none" stroke="#2B160B" stroke-width="9" stroke-linejoin="round" stroke-linecap="round"><rect x="172" y="267" width="66" height="66" rx="19"/><rect x="276" y="267" width="66" height="66" rx="19"/><path d="M238,292 Q257,282 276,292"/><path d="M172,288 L138,266"/><path d="M342,288 L376,266"/></g></g><text x="272" y="186" font-family="Poppins, 'Segoe UI', Arial, sans-serif" font-weight="800" font-size="96" letter-spacing="-1" text-anchor="start" fill="url(#es-gold)">EinzelStück</text><text x="852" y="128" font-family="Poppins, 'Segoe UI', Arial, sans-serif" font-weight="700" font-size="44" letter-spacing="-1" fill="#B8912F">1/1</text><line x1="854" y1="146" x2="920" y2="146" stroke="#B8912F" stroke-width="3" opacity="0.5"/></svg>
