<svg xmlns="http://www.w3.org/2000/svg" viewBox="0 20 1613.6799999999998 360"><g transform="translate(-73.256,-33.721) scale(0.872093)"><path d="M96,96 L186,150 L256,185 L326,150 L416,96 L396,250 L256,440 L116,250 Z" fill="#D97706"/><path d="M132,120 L186,150 L158,182 Z" fill="#7C3F16"/><path d="M380,120 L326,150 L354,182 Z" fill="#7C3F16"/><path d="M198,250 L314,250 L256,430 Z" fill="#FFF7ED"/><path d="M192,228 L232,222 L214,250 Z" fill="#2B160B"/><circle cx="306" cy="236" r="30" fill="#7C3F16"/><circle cx="306" cy="236" r="22" fill="#0E2540"/><circle cx="306" cy="236" r="13" fill="#2563EB"/><circle cx="306" cy="236" r="6" fill="#7DD3FC"/><path d="M243,372 L269,372 L256,392 Z" fill="#2B160B"/><path fill-rule="evenodd" fill="#9F1239" d="M262,236 a44,44 0 1,0 88,0 a44,44 0 1,0 -88,0 Z M268.5,236 a37.5,37.5 0 1,0 75.0,0 a37.5,37.5 0 1,0 -75.0,0 Z"/><circle cx="340" cy="273" r="4.2" fill="#9F1239"/><circle cx="348" cy="288" r="4.2" fill="#9F1239"/><circle cx="354" cy="305" r="4.2" fill="#9F1239"/><circle cx="357" cy="323" r="4.2" fill="#9F1239"/><path fill-rule="evenodd" fill="#9F1239" d="M346.5,343 a10.5,10.5 0 1,0 21.0,0 a10.5,10.5 0 1,0 -21.0,0 Z M352.4,343 a4.6,4.6 0 1,0 9.2,0 a4.6,4.6 0 1,0 -9.2,0 Z"/></g><path transform="translate(330.000,265.000) scale(0.190000,-0.190000)" fill="#2B160B" d="M528 480Q509 515 473.5 533.5Q438 552 390 552Q307 552 257.0 497.5Q207 443 207 352Q207 255 259.5 200.5Q312 146 404 146Q467 146 510.5 178.0Q554 210 574 270H357V396H729V237Q710 173 664.5 118.0Q619 63 549.0 29.0Q479 -5 391 -5Q287 -5 205.5 40.5Q124 86 78.5 167.0Q33 248 33 352Q33 456 78.5 537.5Q124 619 205.0 664.5Q286 710 390 710Q516 710 602.5 649.0Q689 588 717 480Z"/><path transform="translate(474.780,265.000) scale(0.190000,-0.190000)" fill="#2B160B" d="M585 238H198Q202 186 231.5 158.5Q261 131 304 131Q368 131 393 185H575Q561 130 524.5 86.0Q488 42 433.0 17.0Q378 -8 310 -8Q228 -8 164.0 27.0Q100 62 64.0 127.0Q28 192 28 279Q28 366 63.5 431.0Q99 496 163.0 531.0Q227 566 310 566Q391 566 454.0 532.0Q517 498 552.5 435.0Q588 372 588 288Q588 264 585 238ZM413 333Q413 377 383.0 403.0Q353 429 308 429Q265 429 235.5 404.0Q206 379 199 333Z"/><path transform="translate(591.820,265.000) scale(0.190000,-0.190000)" fill="#2B160B" d="M863 558 712 0H523L435 362L344 0H156L4 558H175L254 159L348 558H529L624 161L702 558Z"/><path transform="translate(756.360,265.000) scale(0.190000,-0.190000)" fill="#2B160B" d="M585 238H198Q202 186 231.5 158.5Q261 131 304 131Q368 131 393 185H575Q561 130 524.5 86.0Q488 42 433.0 17.0Q378 -8 310 -8Q228 -8 164.0 27.0Q100 62 64.0 127.0Q28 192 28 279Q28 366 63.5 431.0Q99 496 163.0 531.0Q227 566 310 566Q391 566 454.0 532.0Q517 498 552.5 435.0Q588 372 588 288Q588 264 585 238ZM413 333Q413 377 383.0 403.0Q353 429 308 429Q265 429 235.5 404.0Q206 379 199 333Z"/><path transform="translate(873.400,265.000) scale(0.190000,-0.190000)" fill="#2B160B" d="M408 564V383H361Q297 383 265.0 355.5Q233 328 233 259V0H62V558H233V465Q263 511 308.0 537.5Q353 564 408 564Z"/><path transform="translate(954.720,265.000) scale(0.190000,-0.190000)" fill="#2B160B" d="M405 566Q474 566 530.0 531.0Q586 496 618.5 431.0Q651 366 651 280Q651 194 618.5 128.5Q586 63 530.0 27.5Q474 -8 405 -8Q346 -8 302.0 15.5Q258 39 233 78V0H62V740H233V479Q257 518 302.0 542.0Q347 566 405 566ZM354 417Q303 417 267.5 380.0Q232 343 232 279Q232 215 267.5 178.0Q303 141 354 141Q405 141 441.0 178.5Q477 216 477 280Q477 344 441.5 380.5Q406 417 354 417Z"/><path transform="translate(1083.730,265.000) scale(0.190000,-0.190000)" fill="#2B160B" d="M585 238H198Q202 186 231.5 158.5Q261 131 304 131Q368 131 393 185H575Q561 130 524.5 86.0Q488 42 433.0 17.0Q378 -8 310 -8Q228 -8 164.0 27.0Q100 62 64.0 127.0Q28 192 28 279Q28 366 63.5 431.0Q99 496 163.0 531.0Q227 566 310 566Q391 566 454.0 532.0Q517 498 552.5 435.0Q588 372 588 288Q588 264 585 238ZM413 333Q413 377 383.0 403.0Q353 429 308 429Q265 429 235.5 404.0Q206 379 199 333Z"/><path transform="translate(1200.770,265.000) scale(0.190000,-0.190000)" fill="#9F1239" d="M339 252H233V0H62V702H339Q423 702 481.0 673.0Q539 644 568.0 593.0Q597 542 597 476Q597 415 569.0 364.5Q541 314 483.0 283.0Q425 252 339 252ZM423 476Q423 518 399.0 541.0Q375 564 326 564H233V388H326Q375 388 399.0 411.0Q423 434 423 476Z"/><path transform="translate(1319.330,265.000) scale(0.190000,-0.190000)" fill="#9F1239" d="M408 564V383H361Q297 383 265.0 355.5Q233 328 233 259V0H62V558H233V465Q263 511 308.0 537.5Q353 564 408 564Z"/><path transform="translate(1400.650,265.000) scale(0.190000,-0.190000)" fill="#9F1239" d="M28 279Q28 365 66.0 430.5Q104 496 170.0 531.0Q236 566 318 566Q400 566 466.0 531.0Q532 496 570.0 430.5Q608 365 608 279Q608 193 569.5 127.5Q531 62 464.5 27.0Q398 -8 316 -8Q234 -8 168.5 27.0Q103 62 65.5 127.0Q28 192 28 279ZM434 279Q434 346 400.5 382.0Q367 418 318 418Q268 418 235.0 382.5Q202 347 202 279Q202 212 234.5 176.0Q267 140 316 140Q365 140 399.5 176.0Q434 212 434 279Z"/></svg>