<svg xmlns="http://www.w3.org/2000/svg" viewBox="0 10.604651162790702 2349.9904651162788 371.7953488372093"><g transform="translate(-52.326,-33.721) scale(0.872093)"><g transform="translate(76,88) scale(0.703125)"><path d="M112.0,0.0 h288.0 a112.0,112.0 0 0 1 112.0,112.0 v288.0 a112.0,112.0 0 0 1 -112.0,112.0 h-288.0 a112.0,112.0 0 0 1 -112.0,-112.0 v-288.0 a112.0,112.0 0 0 1 112.0,-112.0 Z" fill="#6F9E1B"/><path d="M0,158.0 L0,112.0 A112.0,112.0 0 0 1 112.0,0 L400.0,0 A112.0,112.0 0 0 1 512.0,112.0 L512.0,158.0 Z" fill="#F6C927"/><path d="M308,158 a46,46 0 0 1 92,0 Z" fill="#C2410C" stroke="#FFF7ED" stroke-width="5"/><path d="M328.7,158 a25.3,25.3 0 0 1 50.6,0 Z" fill="#D95F1E"/><line x1="298.9" y1="148.3" x2="275.3" y2="144.1" stroke="#FFF7ED" stroke-width="12" stroke-linecap="round"/><line x1="298.9" y1="148.3" x2="275.3" y2="144.1" stroke="#C2410C" stroke-width="7" stroke-linecap="round"/><line x1="305.5" y1="130.0" x2="284.8" y2="118.0" stroke="#FFF7ED" stroke-width="12" stroke-linecap="round"/><line x1="305.5" y1="130.0" x2="284.8" y2="118.0" stroke="#C2410C" stroke-width="7" stroke-linecap="round"/><line x1="318.0" y1="115.1" x2="302.6" y2="96.8" stroke="#FFF7ED" stroke-width="12" stroke-linecap="round"/><line x1="318.0" y1="115.1" x2="302.6" y2="96.8" stroke="#C2410C" stroke-width="7" stroke-linecap="round"/><line x1="334.8" y1="105.4" x2="326.7" y2="82.9" stroke="#FFF7ED" stroke-width="12" stroke-linecap="round"/><line x1="334.8" y1="105.4" x2="326.7" y2="82.9" stroke="#C2410C" stroke-width="7" stroke-linecap="round"/><line x1="354.0" y1="102.0" x2="354.0" y2="78.1" stroke="#FFF7ED" stroke-width="12" stroke-linecap="round"/><line x1="354.0" y1="102.0" x2="354.0" y2="78.1" stroke="#C2410C" stroke-width="7" stroke-linecap="round"/><line x1="373.2" y1="105.4" x2="381.3" y2="82.9" stroke="#FFF7ED" stroke-width="12" stroke-linecap="round"/><line x1="373.2" y1="105.4" x2="381.3" y2="82.9" stroke="#C2410C" stroke-width="7" stroke-linecap="round"/><line x1="390.0" y1="115.1" x2="405.4" y2="96.8" stroke="#FFF7ED" stroke-width="12" stroke-linecap="round"/><line x1="390.0" y1="115.1" x2="405.4" y2="96.8" stroke="#C2410C" stroke-width="7" stroke-linecap="round"/><line x1="402.5" y1="130.0" x2="423.2" y2="118.0" stroke="#FFF7ED" stroke-width="12" stroke-linecap="round"/><line x1="402.5" y1="130.0" x2="423.2" y2="118.0" stroke="#C2410C" stroke-width="7" stroke-linecap="round"/><line x1="409.1" y1="148.3" x2="432.7" y2="144.1" stroke="#FFF7ED" stroke-width="12" stroke-linecap="round"/><line x1="409.1" y1="148.3" x2="432.7" y2="144.1" stroke="#C2410C" stroke-width="7" stroke-linecap="round"/><path d="M212.6,331.2 L212.6,458.1 L419.4,458.1 L419.4,331.2" fill="none" stroke="#FFF7ED" stroke-width="7" stroke-linecap="round" stroke-linejoin="round"/><path d="M179.7,345.3 L316.0,223.1 L452.3,345.3" fill="none" stroke="#FFF7ED" stroke-width="9" stroke-linecap="round" stroke-linejoin="round"/><path d="M386.5,286.6 L386.5,239.6" stroke="#FFF7ED" stroke-width="9" stroke-linecap="round"/><path d="M278.4,458.1 V418.2 a30.6,30.6 0 0 1 61.1,0 V458.1 Z" fill="#FFF7ED"/><circle cx="372.4" cy="354.7" r="28.2" fill="#FFF7ED"/><g transform="translate(140.0,170.0) rotate(12) translate(-178.60,-186.98) scale(0.69767)"><path d="M96,96 L186,150 L256,185 L326,150 L416,96 L396,250 L256,440 L116,250 Z" fill="#241609"/></g></g></g><path transform="translate(371.860,265.000) scale(0.190000,-0.190000)" fill="#2B160B" d="M670 702V0H499V289H233V0H62V702H233V427H499V702Z"/><path transform="translate(510.750,265.000) scale(0.190000,-0.190000)" fill="#2B160B" d="M274 566Q333 566 377.5 542.0Q422 518 446 479V558H617V0H446V79Q421 40 376.5 16.0Q332 -8 273 -8Q205 -8 149.0 27.5Q93 63 60.5 128.5Q28 194 28 280Q28 366 60.5 431.0Q93 496 149.0 531.0Q205 566 274 566ZM324 417Q273 417 237.5 380.5Q202 344 202 280Q202 216 237.5 178.5Q273 141 324 141Q375 141 410.5 178.0Q446 215 446 279Q446 343 410.5 380.0Q375 417 324 417Z"/><path transform="translate(639.760,265.000) scale(0.190000,-0.190000)" fill="#2B160B" d="M613 558V0H442V76Q416 39 371.5 16.5Q327 -6 273 -6Q209 -6 160.0 22.5Q111 51 84.0 105.0Q57 159 57 232V558H227V255Q227 199 256.0 168.0Q285 137 334 137Q384 137 413.0 168.0Q442 199 442 255V558Z"/><path transform="translate(767.820,265.000) scale(0.190000,-0.190000)" fill="#2B160B" d="M32 183H201Q204 154 228.0 136.0Q252 118 287 118Q319 118 336.5 130.5Q354 143 354 163Q354 187 329.0 198.5Q304 210 248 224Q188 238 148.0 253.5Q108 269 79.0 302.5Q50 336 50 393Q50 441 76.5 480.5Q103 520 154.5 543.0Q206 566 277 566Q382 566 442.5 514.0Q503 462 512 376H354Q350 405 328.5 422.0Q307 439 272 439Q242 439 226.0 427.5Q210 416 210 396Q210 372 235.5 360.0Q261 348 315 336Q377 320 416.0 304.5Q455 289 484.5 254.5Q514 220 515 162Q515 113 487.5 74.5Q460 36 408.5 14.0Q357 -8 289 -8Q216 -8 159.0 17.0Q102 42 69.0 85.5Q36 129 32 183Z"/><path transform="translate(873.840,265.000) scale(0.190000,-0.190000)" fill="#2B160B" d="M617 326V0H447V303Q447 359 418.0 390.0Q389 421 340 421Q291 421 262.0 390.0Q233 359 233 303V0H62V740H233V483Q259 520 304.0 542.0Q349 564 405 564Q501 564 559.0 500.5Q617 437 617 326Z"/><path transform="translate(1001.900,265.000) scale(0.190000,-0.190000)" fill="#2B160B" d="M274 566Q333 566 377.5 542.0Q422 518 446 479V558H617V0H446V79Q421 40 376.5 16.0Q332 -8 273 -8Q205 -8 149.0 27.5Q93 63 60.5 128.5Q28 194 28 280Q28 366 60.5 431.0Q93 496 149.0 531.0Q205 566 274 566ZM324 417Q273 417 237.5 380.5Q202 344 202 280Q202 216 237.5 178.5Q273 141 324 141Q375 141 410.5 178.0Q446 215 446 279Q446 343 410.5 380.0Q375 417 324 417Z"/><path transform="translate(1130.910,265.000) scale(0.190000,-0.190000)" fill="#2B160B" d="M233 740V0H62V740Z"/><path transform="translate(1186.960,265.000) scale(0.190000,-0.190000)" fill="#2B160B" d="M373 145V0H286Q193 0 141.0 45.5Q89 91 89 194V416H21V558H89V694H260V558H372V416H260V192Q260 167 272.0 156.0Q284 145 312 145Z"/><path transform="translate(1264.100,265.000) scale(0.190000,-0.190000)" fill="#2B160B" d="M32 183H201Q204 154 228.0 136.0Q252 118 287 118Q319 118 336.5 130.5Q354 143 354 163Q354 187 329.0 198.5Q304 210 248 224Q188 238 148.0 253.5Q108 269 79.0 302.5Q50 336 50 393Q50 441 76.5 480.5Q103 520 154.5 543.0Q206 566 277 566Q382 566 442.5 514.0Q503 462 512 376H354Q350 405 328.5 422.0Q307 439 272 439Q242 439 226.0 427.5Q210 416 210 396Q210 372 235.5 360.0Q261 348 315 336Q377 320 416.0 304.5Q455 289 484.5 254.5Q514 220 515 162Q515 113 487.5 74.5Q460 36 408.5 14.0Q357 -8 289 -8Q216 -8 159.0 17.0Q102 42 69.0 85.5Q36 129 32 183Z"/><path transform="translate(1370.120,265.000) scale(0.190000,-0.190000)" fill="#577B15" d="M857 702V0H686V421L529 0H391L233 422V0H62V702H264L461 216L656 702Z"/><path transform="translate(1544.540,265.000) scale(0.190000,-0.190000)" fill="#577B15" d="M274 566Q333 566 377.5 542.0Q422 518 446 479V558H617V0H446V79Q421 40 376.5 16.0Q332 -8 273 -8Q205 -8 149.0 27.5Q93 63 60.5 128.5Q28 194 28 280Q28 366 60.5 431.0Q93 496 149.0 531.0Q205 566 274 566ZM324 417Q273 417 237.5 380.5Q202 344 202 280Q202 216 237.5 178.5Q273 141 324 141Q375 141 410.5 178.0Q446 215 446 279Q446 343 410.5 380.0Q375 417 324 417Z"/><path transform="translate(1673.550,265.000) scale(0.190000,-0.190000)" fill="#577B15" d="M617 326V0H447V303Q447 359 418.0 390.0Q389 421 340 421Q291 421 262.0 390.0Q233 359 233 303V0H62V558H233V484Q259 521 303.0 542.5Q347 564 402 564Q500 564 558.5 500.5Q617 437 617 326Z"/><path transform="translate(1801.610,265.000) scale(0.190000,-0.190000)" fill="#577B15" d="M274 566Q333 566 377.5 542.0Q422 518 446 479V558H617V0H446V79Q421 40 376.5 16.0Q332 -8 273 -8Q205 -8 149.0 27.5Q93 63 60.5 128.5Q28 194 28 280Q28 366 60.5 431.0Q93 496 149.0 531.0Q205 566 274 566ZM324 417Q273 417 237.5 380.5Q202 344 202 280Q202 216 237.5 178.5Q273 141 324 141Q375 141 410.5 178.0Q446 215 446 279Q446 343 410.5 380.0Q375 417 324 417Z"/><path transform="translate(1930.620,265.000) scale(0.190000,-0.190000)" fill="#577B15" d="M446 479V558H617V1Q617 -76 586.5 -138.5Q556 -201 493.5 -238.0Q431 -275 338 -275Q214 -275 137.0 -216.5Q60 -158 49 -58H218Q226 -90 256.0 -108.5Q286 -127 330 -127Q383 -127 414.5 -96.5Q446 -66 446 1V80Q421 41 377.0 16.5Q333 -8 274 -8Q205 -8 149.0 27.5Q93 63 60.5 128.5Q28 194 28 280Q28 366 60.5 431.0Q93 496 149.0 531.0Q205 566 274 566Q333 566 377.5 542.0Q422 518 446 479ZM324 417Q273 417 237.5 380.5Q202 344 202 280Q202 216 237.5 178.5Q273 141 324 141Q375 141 410.5 178.0Q446 215 446 279Q446 343 410.5 380.0Q375 417 324 417Z"/><path transform="translate(2059.630,265.000) scale(0.190000,-0.190000)" fill="#577B15" d="M585 238H198Q202 186 231.5 158.5Q261 131 304 131Q368 131 393 185H575Q561 130 524.5 86.0Q488 42 433.0 17.0Q378 -8 310 -8Q228 -8 164.0 27.0Q100 62 64.0 127.0Q28 192 28 279Q28 366 63.5 431.0Q99 496 163.0 531.0Q227 566 310 566Q391 566 454.0 532.0Q517 498 552.5 435.0Q588 372 588 288Q588 264 585 238ZM413 333Q413 377 383.0 403.0Q353 429 308 429Q265 429 235.5 404.0Q206 379 199 333Z"/><path transform="translate(2176.670,265.000) scale(0.190000,-0.190000)" fill="#577B15" d="M408 564V383H361Q297 383 265.0 355.5Q233 328 233 259V0H62V558H233V465Q263 511 308.0 537.5Q353 564 408 564Z"/><path transform="translate(371.860,360.400) scale(0.052000,-0.052000)" fill="#7C3F16" d="M300 129 440 554H589L384 0H214L10 554H160Z"/><path transform="translate(403.008,360.400) scale(0.052000,-0.052000)" fill="#7C3F16" d="M34 277Q34 362 71.5 427.0Q109 492 174.0 527.5Q239 563 319 563Q399 563 464.0 527.5Q529 492 566.5 427.0Q604 362 604 277Q604 192 565.5 127.0Q527 62 461.5 26.5Q396 -9 315 -9Q235 -9 171.0 26.5Q107 62 70.5 127.0Q34 192 34 277ZM460 277Q460 356 418.5 398.5Q377 441 317 441Q257 441 216.5 398.5Q176 356 176 277Q176 198 215.5 155.5Q255 113 315 113Q353 113 386.5 131.5Q420 150 440.0 187.0Q460 224 460 277Z"/><path transform="translate(436.184,360.400) scale(0.052000,-0.052000)" fill="#7C3F16" d="M597 325V0H457V306Q457 372 424.0 407.5Q391 443 334 443Q276 443 242.5 407.5Q209 372 209 306V0H69V554H209V485Q237 521 280.5 541.5Q324 562 376 562Q475 562 536.0 499.5Q597 437 597 325Z"/><path transform="translate(482.932,360.400) scale(0.052000,-0.052000)" fill="#7C3F16" d="M500 698V585H209V406H432V295H209V0H69V698Z"/><path transform="translate(510.492,360.400) scale(0.052000,-0.052000)" fill="#7C3F16" d="M580 235H175Q180 175 217.0 141.0Q254 107 308 107Q386 107 419 174H570Q546 94 478.0 42.5Q410 -9 311 -9Q231 -9 167.5 26.5Q104 62 68.5 127.0Q33 192 33 277Q33 363 68.0 428.0Q103 493 166.0 528.0Q229 563 311 563Q390 563 452.5 529.0Q515 495 549.5 432.5Q584 370 584 289Q584 259 580 235ZM439 329Q438 383 400.0 415.5Q362 448 307 448Q255 448 219.5 416.5Q184 385 176 329Z"/><path transform="translate(542.576,360.400) scale(0.052000,-0.052000)" fill="#7C3F16" d="M597 325V0H457V306Q457 372 424.0 407.5Q391 443 334 443Q276 443 242.5 407.5Q209 372 209 306V0H69V740H209V485Q236 521 281.0 541.5Q326 562 381 562Q444 562 493.0 534.5Q542 507 569.5 453.5Q597 400 597 325Z"/><path transform="translate(576.948,360.400) scale(0.052000,-0.052000)" fill="#7C3F16" d="M209 740V0H69V740Z"/><path transform="translate(591.404,360.400) scale(0.052000,-0.052000)" fill="#7C3F16" d="M580 235H175Q180 175 217.0 141.0Q254 107 308 107Q386 107 419 174H570Q546 94 478.0 42.5Q410 -9 311 -9Q231 -9 167.5 26.5Q104 62 68.5 127.0Q33 192 33 277Q33 363 68.0 428.0Q103 493 166.0 528.0Q229 563 311 563Q390 563 452.5 529.0Q515 495 549.5 432.5Q584 370 584 289Q584 259 580 235ZM439 329Q438 383 400.0 415.5Q362 448 307 448Q255 448 219.5 416.5Q184 385 176 329Z"/><path transform="translate(623.488,360.400) scale(0.052000,-0.052000)" fill="#7C3F16" d="M379 562V415H342Q276 415 242.5 384.0Q209 353 209 276V0H69V554H209V468Q236 512 279.5 537.0Q323 562 379 562Z"/><path transform="translate(644.496,360.400) scale(0.052000,-0.052000)" fill="#7C3F16" d="M500 698V585H209V406H432V295H209V0H69V698Z"/><path transform="translate(672.056,360.400) scale(0.052000,-0.052000)" fill="#7C3F16" d="M592 554V0H451V70Q424 34 380.5 13.5Q337 -7 286 -7Q221 -7 171.0 20.5Q121 48 92.5 101.5Q64 155 64 229V554H204V249Q204 183 237.0 147.5Q270 112 327 112Q385 112 418.0 147.5Q451 183 451 249V554Z"/><path transform="translate(706.428,360.400) scale(0.052000,-0.052000)" fill="#7C3F16" d="M307 563Q410 563 477.5 511.5Q545 460 568 367H417Q405 403 376.5 423.5Q348 444 306 444Q246 444 211.0 400.5Q176 357 176 277Q176 198 211.0 154.5Q246 111 306 111Q391 111 417 187H568Q545 97 477.0 44.0Q409 -9 307 -9Q227 -9 165.0 26.5Q103 62 68.0 126.5Q33 191 33 277Q33 363 68.0 427.5Q103 492 165.0 527.5Q227 563 307 563Z"/><path transform="translate(737.732,360.400) scale(0.052000,-0.052000)" fill="#7C3F16" d="M597 325V0H457V306Q457 372 424.0 407.5Q391 443 334 443Q276 443 242.5 407.5Q209 372 209 306V0H69V740H209V485Q236 521 281.0 541.5Q326 562 381 562Q444 562 493.0 534.5Q542 507 569.5 453.5Q597 400 597 325Z"/><path transform="translate(772.104,360.400) scale(0.052000,-0.052000)" fill="#7C3F16" d="M39 175H180Q184 143 211.5 122.0Q239 101 280 101Q320 101 342.5 117.0Q365 133 365 158Q365 185 337.5 198.5Q310 212 250 228Q188 243 148.5 259.0Q109 275 80.5 308.0Q52 341 52 397Q52 443 78.5 481.0Q105 519 154.5 541.0Q204 563 271 563Q370 563 429.0 513.5Q488 464 494 380H360Q357 413 332.5 432.5Q308 452 267 452Q229 452 208.5 438.0Q188 424 188 399Q188 371 216.0 356.5Q244 342 303 327Q363 312 402.0 296.0Q441 280 469.5 246.5Q498 213 499 158Q499 110 472.5 72.0Q446 34 396.5 12.5Q347 -9 281 -9Q213 -9 159.0 15.5Q105 40 73.5 82.0Q42 124 39 175Z"/></svg>