<svg xmlns="http://www.w3.org/2000/svg" viewBox="0 20 2118.149488372093 364.6744186046512"><g transform="translate(-66.279,-33.721) scale(0.872093)"><path d="M96,96 L186,150 L256,185 L326,150 L416,96 L396,250 L256,440 L116,250 Z" fill="#D97706"/><path d="M132,120 L186,150 L158,182 Z" fill="#7C3F16"/><path d="M380,120 L326,150 L354,182 Z" fill="#7C3F16"/><path d="M198,250 L314,250 L256,430 Z" fill="#FFF7ED"/><path d="M192,228 L232,222 L214,250 Z" fill="#2B160B"/><circle cx="306" cy="236" r="30" fill="#7C3F16"/><circle cx="306" cy="236" r="22" fill="#0E2540"/><circle cx="306" cy="236" r="13" fill="#2563EB"/><circle cx="306" cy="236" r="6" fill="#7DD3FC"/><path d="M243,372 L269,372 L256,392 Z" fill="#2B160B"/><g><rect x="300" y="300" width="116" height="158" rx="18" fill="#FFF7ED" stroke="#0C5E74" stroke-width="10"/><rect x="318" y="322" width="80" height="104" rx="6" fill="#0C5E74"/><path d="M358,338 L392,404 H324 Z" fill="#FFF7ED"/><rect x="352.5" y="352" width="11" height="26" rx="5.5" fill="#0C5E74"/><circle cx="358" cy="388" r="7" fill="#0C5E74"/><rect x="342" y="436" width="32" height="7" rx="3.5" fill="#0C5E74"/></g></g><path transform="translate(343.953,265.000) scale(0.190000,-0.190000)" fill="#2B160B" d="M857 702V0H686V421L529 0H391L233 422V0H62V702H264L461 216L656 702Z"/><path transform="translate(518.373,265.000) scale(0.190000,-0.190000)" fill="#2B160B" d="M28 279Q28 365 66.0 430.5Q104 496 170.0 531.0Q236 566 318 566Q400 566 466.0 531.0Q532 496 570.0 430.5Q608 365 608 279Q608 193 569.5 127.5Q531 62 464.5 27.0Q398 -8 316 -8Q234 -8 168.5 27.0Q103 62 65.5 127.0Q28 192 28 279ZM434 279Q434 346 400.5 382.0Q367 418 318 418Q268 418 235.0 382.5Q202 347 202 279Q202 212 234.5 176.0Q267 140 316 140Q365 140 399.5 176.0Q434 212 434 279Z"/><path transform="translate(639.403,265.000) scale(0.190000,-0.190000)" fill="#2B160B" d="M405 566Q474 566 530.0 531.0Q586 496 618.5 431.0Q651 366 651 280Q651 194 618.5 128.5Q586 63 530.0 27.5Q474 -8 405 -8Q346 -8 302.0 15.5Q258 39 233 78V0H62V740H233V479Q257 518 302.0 542.0Q347 566 405 566ZM354 417Q303 417 267.5 380.0Q232 343 232 279Q232 215 267.5 178.0Q303 141 354 141Q405 141 441.0 178.5Q477 216 477 280Q477 344 441.5 380.5Q406 417 354 417Z"/><path transform="translate(768.413,265.000) scale(0.190000,-0.190000)" fill="#2B160B" d="M46 708Q46 748 74.5 774.5Q103 801 148 801Q192 801 220.5 774.5Q249 748 249 708Q249 669 220.5 642.5Q192 616 148 616Q103 616 74.5 642.5Q46 669 46 708ZM233 558V0H62V558Z"/><path transform="translate(824.463,265.000) scale(0.190000,-0.190000)" fill="#2B160B" d="M233 740V0H62V740Z"/><path transform="translate(880.513,265.000) scale(0.190000,-0.190000)" fill="#2B160B" d="M585 238H198Q202 186 231.5 158.5Q261 131 304 131Q368 131 393 185H575Q561 130 524.5 86.0Q488 42 433.0 17.0Q378 -8 310 -8Q228 -8 164.0 27.0Q100 62 64.0 127.0Q28 192 28 279Q28 366 63.5 431.0Q99 496 163.0 531.0Q227 566 310 566Q391 566 454.0 532.0Q517 498 552.5 435.0Q588 372 588 288Q588 264 585 238ZM413 333Q413 377 383.0 403.0Q353 429 308 429Q265 429 235.5 404.0Q206 379 199 333Z"/><path transform="translate(997.553,265.000) scale(0.190000,-0.190000)" fill="#C2410C" d="M420 0 274 265H233V0H62V702H349Q432 702 490.5 673.0Q549 644 578.0 593.5Q607 543 607 481Q607 411 567.5 356.0Q528 301 451 278L613 0ZM233 386H339Q386 386 409.5 409.0Q433 432 433 474Q433 514 409.5 537.0Q386 560 339 560H233Z"/><path transform="translate(1121.433,265.000) scale(0.190000,-0.190000)" fill="#C2410C" d="M585 238H198Q202 186 231.5 158.5Q261 131 304 131Q368 131 393 185H575Q561 130 524.5 86.0Q488 42 433.0 17.0Q378 -8 310 -8Q228 -8 164.0 27.0Q100 62 64.0 127.0Q28 192 28 279Q28 366 63.5 431.0Q99 496 163.0 531.0Q227 566 310 566Q391 566 454.0 532.0Q517 498 552.5 435.0Q588 372 588 288Q588 264 585 238ZM413 333Q413 377 383.0 403.0Q353 429 308 429Q265 429 235.5 404.0Q206 379 199 333Z"/><path transform="translate(1238.473,265.000) scale(0.190000,-0.190000)" fill="#C2410C" d="M405 566Q474 566 530.0 531.0Q586 496 618.5 431.0Q651 366 651 280Q651 194 618.5 128.5Q586 63 530.0 27.5Q474 -8 405 -8Q347 -8 302.5 16.0Q258 40 233 78V-266H62V558H233V479Q258 518 302.0 542.0Q346 566 405 566ZM354 417Q303 417 267.5 380.0Q232 343 232 279Q232 215 267.5 178.0Q303 141 354 141Q405 141 441.0 178.5Q477 216 477 280Q477 344 441.5 380.5Q406 417 354 417Z"/><path transform="translate(1367.483,265.000) scale(0.190000,-0.190000)" fill="#C2410C" d="M28 279Q28 365 66.0 430.5Q104 496 170.0 531.0Q236 566 318 566Q400 566 466.0 531.0Q532 496 570.0 430.5Q608 365 608 279Q608 193 569.5 127.5Q531 62 464.5 27.0Q398 -8 316 -8Q234 -8 168.5 27.0Q103 62 65.5 127.0Q28 192 28 279ZM434 279Q434 346 400.5 382.0Q367 418 318 418Q268 418 235.0 382.5Q202 347 202 279Q202 212 234.5 176.0Q267 140 316 140Q365 140 399.5 176.0Q434 212 434 279Z"/><path transform="translate(1488.513,265.000) scale(0.190000,-0.190000)" fill="#C2410C" d="M408 564V383H361Q297 383 265.0 355.5Q233 328 233 259V0H62V558H233V465Q263 511 308.0 537.5Q353 564 408 564Z"/><path transform="translate(1569.833,265.000) scale(0.190000,-0.190000)" fill="#C2410C" d="M373 145V0H286Q193 0 141.0 45.5Q89 91 89 194V416H21V558H89V694H260V558H372V416H260V192Q260 167 272.0 156.0Q284 145 312 145Z"/><path transform="translate(1668.973,265.000) scale(0.074000,-0.074000)" fill="#0C5E74" d="M209 585V410H444V299H209V114H474V0H69V699H474V585Z"/><path transform="translate(1708.341,265.000) scale(0.074000,-0.074000)" fill="#0C5E74" d="M597 325V0H457V306Q457 372 424.0 407.5Q391 443 334 443Q276 443 242.5 407.5Q209 372 209 306V0H69V554H209V485Q237 521 280.5 541.5Q324 562 376 562Q475 562 536.0 499.5Q597 437 597 325Z"/><path transform="translate(1757.255,265.000) scale(0.074000,-0.074000)" fill="#0C5E74" d="M232 439V171Q232 143 245.5 130.5Q259 118 291 118H356V0H268Q91 0 91 172V439H25V554H91V691H232V554H356V439Z"/><path transform="translate(1785.967,265.000) scale(0.074000,-0.074000)" fill="#0C5E74" d="M580 235H175Q180 175 217.0 141.0Q254 107 308 107Q386 107 419 174H570Q546 94 478.0 42.5Q410 -9 311 -9Q231 -9 167.5 26.5Q104 62 68.5 127.0Q33 192 33 277Q33 363 68.0 428.0Q103 493 166.0 528.0Q229 563 311 563Q390 563 452.5 529.0Q515 495 549.5 432.5Q584 370 584 289Q584 259 580 235ZM439 329Q438 383 400.0 415.5Q362 448 307 448Q255 448 219.5 416.5Q184 385 176 329Z"/><path transform="translate(1831.625,265.000) scale(0.074000,-0.074000)" fill="#0C5E74" d="M379 562V415H342Q276 415 242.5 384.0Q209 353 209 276V0H69V554H209V468Q236 512 279.5 537.0Q323 562 379 562Z"/><path transform="translate(1861.521,265.000) scale(0.074000,-0.074000)" fill="#0C5E74" d="M392 563Q463 563 520.5 528.0Q578 493 611.5 428.5Q645 364 645 279Q645 194 611.5 128.5Q578 63 520.5 27.0Q463 -9 392 -9Q331 -9 284.5 16.0Q238 41 209 79V-264H69V554H209V474Q236 512 283.5 537.5Q331 563 392 563ZM355 440Q317 440 283.5 420.5Q250 401 229.5 364.0Q209 327 209 277Q209 227 229.5 190.0Q250 153 283.5 133.5Q317 114 355 114Q394 114 427.5 134.0Q461 154 481.5 191.0Q502 228 502 279Q502 329 481.5 365.5Q461 402 427.5 421.0Q394 440 355 440Z"/><path transform="translate(1911.693,265.000) scale(0.074000,-0.074000)" fill="#0C5E74" d="M379 562V415H342Q276 415 242.5 384.0Q209 353 209 276V0H69V554H209V468Q236 512 279.5 537.0Q323 562 379 562Z"/><path transform="translate(1941.589,265.000) scale(0.074000,-0.074000)" fill="#0C5E74" d="M54 702Q54 737 78.5 760.5Q103 784 140 784Q177 784 201.5 760.5Q226 737 226 702Q226 667 201.5 643.5Q177 620 140 620Q103 620 78.5 643.5Q54 667 54 702ZM209 554V0H69V554Z"/><path transform="translate(1962.161,265.000) scale(0.074000,-0.074000)" fill="#0C5E74" d="M39 175H180Q184 143 211.5 122.0Q239 101 280 101Q320 101 342.5 117.0Q365 133 365 158Q365 185 337.5 198.5Q310 212 250 228Q188 243 148.5 259.0Q109 275 80.5 308.0Q52 341 52 397Q52 443 78.5 481.0Q105 519 154.5 541.0Q204 563 271 563Q370 563 429.0 513.5Q488 464 494 380H360Q357 413 332.5 432.5Q308 452 267 452Q229 452 208.5 438.0Q188 424 188 399Q188 371 216.0 356.5Q244 342 303 327Q363 312 402.0 296.0Q441 280 469.5 246.5Q498 213 499 158Q499 110 472.5 72.0Q446 34 396.5 12.5Q347 -9 281 -9Q213 -9 159.0 15.5Q105 40 73.5 82.0Q42 124 39 175Z"/><path transform="translate(2002.491,265.000) scale(0.074000,-0.074000)" fill="#0C5E74" d="M580 235H175Q180 175 217.0 141.0Q254 107 308 107Q386 107 419 174H570Q546 94 478.0 42.5Q410 -9 311 -9Q231 -9 167.5 26.5Q104 62 68.5 127.0Q33 192 33 277Q33 363 68.0 428.0Q103 493 166.0 528.0Q229 563 311 563Q390 563 452.5 529.0Q515 495 549.5 432.5Q584 370 584 289Q584 259 580 235ZM439 329Q438 383 400.0 415.5Q362 448 307 448Q255 448 219.5 416.5Q184 385 176 329Z"/></svg>