<svg xmlns="http://www.w3.org/2000/svg" viewBox="0 20 2035.6620930232557 360"><g transform="translate(-54.070,-33.721) scale(0.872093)"><path d="M96,96 L186,150 L256,185 L326,150 L416,96 L396,250 L256,440 L116,250 Z" fill="#D97706"/><path d="M132,120 L186,150 L158,182 Z" fill="#7C3F16"/><path d="M380,120 L326,150 L354,182 Z" fill="#7C3F16"/><path d="M198,250 L314,250 L256,430 Z" fill="#FFF7ED"/><path d="M192,228 L232,222 L214,250 Z" fill="#2B160B"/><circle cx="306" cy="236" r="30" fill="#7C3F16"/><circle cx="306" cy="236" r="22" fill="#0E2540"/><circle cx="306" cy="236" r="13" fill="#2563EB"/><circle cx="306" cy="236" r="6" fill="#7DD3FC"/><path d="M243,372 L269,372 L256,392 Z" fill="#2B160B"/><g><path d="M282,352 Q322,338 356,352 L356,444 Q322,430 282,444 Z" fill="#FFF7ED" stroke="#9F1239" stroke-width="9" stroke-linejoin="round"/><path d="M430,352 Q396,338 362,352 L362,444 Q396,430 430,444 Z" fill="#FFF7ED" stroke="#9F1239" stroke-width="9" stroke-linejoin="round"/><rect x="353" y="348" width="12" height="98" rx="5" fill="#9F1239"/><rect x="296" y="378" width="48" height="9" rx="4.5" fill="#9F1239"/><rect x="296" y="400" width="48" height="9" rx="4.5" fill="#9F1239"/><rect x="374" y="378" width="48" height="9" rx="4.5" fill="#9F1239"/><rect x="374" y="400" width="48" height="9" rx="4.5" fill="#9F1239"/></g></g><path transform="translate(368.372,265.000) scale(0.190000,-0.190000)" fill="#2B160B" d="M339 252H233V0H62V702H339Q423 702 481.0 673.0Q539 644 568.0 593.0Q597 542 597 476Q597 415 569.0 364.5Q541 314 483.0 283.0Q425 252 339 252ZM423 476Q423 518 399.0 541.0Q375 564 326 564H233V388H326Q375 388 399.0 411.0Q423 434 423 476Z"/><path transform="translate(486.932,265.000) scale(0.190000,-0.190000)" fill="#2B160B" d="M693 351Q693 248 647.5 168.0Q602 88 518.5 44.0Q435 0 325 0H62V702H325Q436 702 519.0 658.0Q602 614 647.5 534.5Q693 455 693 351ZM519 351Q519 448 465.0 502.0Q411 556 314 556H233V148H314Q411 148 465.0 201.0Q519 254 519 351Z"/><path transform="translate(625.062,265.000) scale(0.190000,-0.190000)" fill="#2B160B" d="M519 702V565H233V417H447V284H233V0H62V702Z"/><path transform="translate(728.992,265.000) scale(0.190000,-0.190000)" fill="#2B160B" d="M613 558V0H442V76Q416 39 371.5 16.5Q327 -6 273 -6Q209 -6 160.0 22.5Q111 51 84.0 105.0Q57 159 57 232V558H227V255Q227 199 256.0 168.0Q285 137 334 137Q384 137 413.0 168.0Q442 199 442 255V558Z"/><path transform="translate(857.052,265.000) scale(0.190000,-0.190000)" fill="#2B160B" d="M308 566Q413 566 483.5 511.0Q554 456 576 356H394Q371 420 305 420Q258 420 230.0 383.5Q202 347 202 279Q202 211 230.0 174.5Q258 138 305 138Q371 138 394 202H576Q554 104 483.0 48.0Q412 -8 308 -8Q226 -8 162.5 27.0Q99 62 63.5 127.0Q28 192 28 279Q28 366 63.5 431.0Q99 496 162.5 531.0Q226 566 308 566Z"/><path transform="translate(972.002,265.000) scale(0.190000,-0.190000)" fill="#2B160B" d="M617 326V0H447V303Q447 359 418.0 390.0Q389 421 340 421Q291 421 262.0 390.0Q233 359 233 303V0H62V740H233V483Q259 520 304.0 542.0Q349 564 405 564Q501 564 559.0 500.5Q617 437 617 326Z"/><path transform="translate(1100.062,265.000) scale(0.190000,-0.190000)" fill="#2B160B" d="M32 183H201Q204 154 228.0 136.0Q252 118 287 118Q319 118 336.5 130.5Q354 143 354 163Q354 187 329.0 198.5Q304 210 248 224Q188 238 148.0 253.5Q108 269 79.0 302.5Q50 336 50 393Q50 441 76.5 480.5Q103 520 154.5 543.0Q206 566 277 566Q382 566 442.5 514.0Q503 462 512 376H354Q350 405 328.5 422.0Q307 439 272 439Q242 439 226.0 427.5Q210 416 210 396Q210 372 235.5 360.0Q261 348 315 336Q377 320 416.0 304.5Q455 289 484.5 254.5Q514 220 515 162Q515 113 487.5 74.5Q460 36 408.5 14.0Q357 -8 289 -8Q216 -8 159.0 17.0Q102 42 69.0 85.5Q36 129 32 183Z"/><path transform="translate(1246.362,265.000) scale(0.190000,-0.190000)" fill="#9F1239" d="M420 0 274 265H233V0H62V702H349Q432 702 490.5 673.0Q549 644 578.0 593.5Q607 543 607 481Q607 411 567.5 356.0Q528 301 451 278L613 0ZM233 386H339Q386 386 409.5 409.0Q433 432 433 474Q433 514 409.5 537.0Q386 560 339 560H233Z"/><path transform="translate(1370.242,265.000) scale(0.190000,-0.190000)" fill="#9F1239" d="M585 238H198Q202 186 231.5 158.5Q261 131 304 131Q368 131 393 185H575Q561 130 524.5 86.0Q488 42 433.0 17.0Q378 -8 310 -8Q228 -8 164.0 27.0Q100 62 64.0 127.0Q28 192 28 279Q28 366 63.5 431.0Q99 496 163.0 531.0Q227 566 310 566Q391 566 454.0 532.0Q517 498 552.5 435.0Q588 372 588 288Q588 264 585 238ZM413 333Q413 377 383.0 403.0Q353 429 308 429Q265 429 235.5 404.0Q206 379 199 333Z"/><path transform="translate(1487.282,265.000) scale(0.190000,-0.190000)" fill="#9F1239" d="M274 566Q333 566 377.5 542.0Q422 518 446 479V558H617V0H446V79Q421 40 376.5 16.0Q332 -8 273 -8Q205 -8 149.0 27.5Q93 63 60.5 128.5Q28 194 28 280Q28 366 60.5 431.0Q93 496 149.0 531.0Q205 566 274 566ZM324 417Q273 417 237.5 380.5Q202 344 202 280Q202 216 237.5 178.5Q273 141 324 141Q375 141 410.5 178.0Q446 215 446 279Q446 343 410.5 380.0Q375 417 324 417Z"/><path transform="translate(1616.292,265.000) scale(0.190000,-0.190000)" fill="#9F1239" d="M274 566Q329 566 374.5 543.0Q420 520 446 481V740H617V0H446V80Q422 40 377.5 16.0Q333 -8 274 -8Q205 -8 149.0 27.5Q93 63 60.5 128.5Q28 194 28 280Q28 366 60.5 431.0Q93 496 149.0 531.0Q205 566 274 566ZM324 417Q273 417 237.5 380.5Q202 344 202 280Q202 216 237.5 178.5Q273 141 324 141Q375 141 410.5 178.0Q446 215 446 279Q446 343 410.5 380.0Q375 417 324 417Z"/><path transform="translate(1745.302,265.000) scale(0.190000,-0.190000)" fill="#9F1239" d="M585 238H198Q202 186 231.5 158.5Q261 131 304 131Q368 131 393 185H575Q561 130 524.5 86.0Q488 42 433.0 17.0Q378 -8 310 -8Q228 -8 164.0 27.0Q100 62 64.0 127.0Q28 192 28 279Q28 366 63.5 431.0Q99 496 163.0 531.0Q227 566 310 566Q391 566 454.0 532.0Q517 498 552.5 435.0Q588 372 588 288Q588 264 585 238ZM413 333Q413 377 383.0 403.0Q353 429 308 429Q265 429 235.5 404.0Q206 379 199 333Z"/><path transform="translate(1862.342,265.000) scale(0.190000,-0.190000)" fill="#9F1239" d="M408 564V383H361Q297 383 265.0 355.5Q233 328 233 259V0H62V558H233V465Q263 511 308.0 537.5Q353 564 408 564Z"/></svg>