<svg xmlns="http://www.w3.org/2000/svg" viewBox="0 0 1180 300" role="img" aria-label="FehlerFuchs PDFuchs Reader"><g transform="translate(10,32.24) scale(0.46)"><polygon points="96,96 186,150 256,185 326,150 416,96 396,250 256,440 116,250" fill="#D97706"/><polygon points="132,120 186,150 158,182" fill="#7C3F16"/><polygon points="380,120 326,150 354,182" fill="#7C3F16"/><polygon points="198,250 314,250 256,430" fill="#FFF7ED"/><polygon points="192,228 232,222 214,250" fill="#2B160B"/><circle cx="306" cy="236" r="30" fill="#7C3F16"/><circle cx="306" cy="236" r="22" fill="#0E2540"/><circle cx="306" cy="236" r="13" fill="#2563EB"/><circle cx="306" cy="236" r="6" fill="#7DD3FC"/><polygon points="243,372 269,372 256,392" fill="#2B160B"/></g><text x="267.52" y="182.64" font-family="Poppins, 'Segoe UI', Arial, sans-serif" font-weight="800" font-size="90" letter-spacing="-0.5" text-anchor="start"><tspan fill="#9F1239">PDF</tspan><tspan fill="#7C3F16">uchs&#160;Reader</tspan></text></svg>
