<svg xmlns="http://www.w3.org/2000/svg" viewBox="0 3.6279069767441854 1582.6941860465115 396.7441860465117"><g transform="translate(-34.884,-33.721) scale(0.872093)"><path d="M96,96 L186,150 L256,185 L326,150 L416,96 L396,250 L256,440 L116,250 Z" fill="#D97706"/><path d="M132,120 L186,150 L158,182 Z" fill="#7C3F16"/><path d="M380,120 L326,150 L354,182 Z" fill="#7C3F16"/><path d="M198,250 L314,250 L256,430 Z" fill="#FFF7ED"/><path d="M192,228 L232,222 L214,250 Z" fill="#2B160B"/><circle cx="306" cy="236" r="30" fill="#7C3F16"/><circle cx="306" cy="236" r="22" fill="#0E2540"/><circle cx="306" cy="236" r="13" fill="#2563EB"/><circle cx="306" cy="236" r="6" fill="#7DD3FC"/><path d="M243,372 L269,372 L256,392 Z" fill="#2B160B"/><g><path d="M70,160 L70,70 L160,70" fill="none" stroke="#2B160B" stroke-width="28" stroke-linecap="round" stroke-linejoin="round"/><path d="M352,70 L442,70 L442,160" fill="none" stroke="#2B160B" stroke-width="28" stroke-linecap="round" stroke-linejoin="round"/><path d="M442,376 L442,466 L352,466" fill="none" stroke="#2B160B" stroke-width="28" stroke-linecap="round" stroke-linejoin="round"/><path d="M160,466 L70,466 L70,376" fill="none" stroke="#2B160B" stroke-width="28" stroke-linecap="round" stroke-linejoin="round"/><path d="M70,160 L70,70 L160,70" fill="none" stroke="#F4A261" stroke-width="18" stroke-linecap="round" stroke-linejoin="round"/><path d="M352,70 L442,70 L442,160" fill="none" stroke="#F4A261" stroke-width="18" stroke-linecap="round" stroke-linejoin="round"/><path d="M442,376 L442,466 L352,466" fill="none" stroke="#F4A261" stroke-width="18" stroke-linecap="round" stroke-linejoin="round"/><path d="M160,466 L70,466 L70,376" fill="none" stroke="#F4A261" stroke-width="18" stroke-linecap="round" stroke-linejoin="round"/></g></g><path transform="translate(406.744,265.000) scale(0.190000,-0.190000)" fill="#FFF7ED" d="M42 210H224Q228 171 251.0 150.5Q274 130 311 130Q349 130 371.0 147.5Q393 165 393 196Q393 222 375.5 239.0Q358 256 332.5 267.0Q307 278 260 292Q192 313 149.0 334.0Q106 355 75.0 396.0Q44 437 44 503Q44 601 115.0 656.5Q186 712 300 712Q416 712 487.0 656.5Q558 601 563 502H378Q376 536 353.0 555.5Q330 575 294 575Q263 575 244.0 558.5Q225 542 225 511Q225 477 257.0 458.0Q289 439 357 417Q425 394 467.5 373.0Q510 352 541.0 312.0Q572 272 572 209Q572 149 541.5 100.0Q511 51 453.0 22.0Q395 -7 316 -7Q239 -7 178.0 18.0Q117 43 80.5 92.0Q44 141 42 210Z"/><path transform="translate(523.594,265.000) scale(0.190000,-0.190000)" fill="#FFF7ED" d="M617 326V0H447V303Q447 359 418.0 390.0Q389 421 340 421Q291 421 262.0 390.0Q233 359 233 303V0H62V558H233V484Q259 521 303.0 542.5Q347 564 402 564Q500 564 558.5 500.5Q617 437 617 326Z"/><path transform="translate(651.654,265.000) scale(0.190000,-0.190000)" fill="#FFF7ED" d="M274 566Q333 566 377.5 542.0Q422 518 446 479V558H617V0H446V79Q421 40 376.5 16.0Q332 -8 273 -8Q205 -8 149.0 27.5Q93 63 60.5 128.5Q28 194 28 280Q28 366 60.5 431.0Q93 496 149.0 531.0Q205 566 274 566ZM324 417Q273 417 237.5 380.5Q202 344 202 280Q202 216 237.5 178.5Q273 141 324 141Q375 141 410.5 178.0Q446 215 446 279Q446 343 410.5 380.0Q375 417 324 417Z"/><path transform="translate(780.664,265.000) scale(0.190000,-0.190000)" fill="#FFF7ED" d="M405 566Q474 566 530.0 531.0Q586 496 618.5 431.0Q651 366 651 280Q651 194 618.5 128.5Q586 63 530.0 27.5Q474 -8 405 -8Q347 -8 302.5 16.0Q258 40 233 78V-266H62V558H233V479Q258 518 302.0 542.0Q346 566 405 566ZM354 417Q303 417 267.5 380.0Q232 343 232 279Q232 215 267.5 178.0Q303 141 354 141Q405 141 441.0 178.5Q477 216 477 280Q477 344 441.5 380.5Q406 417 354 417Z"/><path transform="translate(909.674,265.000) scale(0.190000,-0.190000)" fill="#F4A261" d="M519 702V565H233V417H447V284H233V0H62V702Z"/><path transform="translate(1013.604,265.000) scale(0.190000,-0.190000)" fill="#F4A261" d="M613 558V0H442V76Q416 39 371.5 16.5Q327 -6 273 -6Q209 -6 160.0 22.5Q111 51 84.0 105.0Q57 159 57 232V558H227V255Q227 199 256.0 168.0Q285 137 334 137Q384 137 413.0 168.0Q442 199 442 255V558Z"/><path transform="translate(1141.664,265.000) scale(0.190000,-0.190000)" fill="#F4A261" d="M308 566Q413 566 483.5 511.0Q554 456 576 356H394Q371 420 305 420Q258 420 230.0 383.5Q202 347 202 279Q202 211 230.0 174.5Q258 138 305 138Q371 138 394 202H576Q554 104 483.0 48.0Q412 -8 308 -8Q226 -8 162.5 27.0Q99 62 63.5 127.0Q28 192 28 279Q28 366 63.5 431.0Q99 496 162.5 531.0Q226 566 308 566Z"/><path transform="translate(1256.614,265.000) scale(0.190000,-0.190000)" fill="#F4A261" d="M617 326V0H447V303Q447 359 418.0 390.0Q389 421 340 421Q291 421 262.0 390.0Q233 359 233 303V0H62V740H233V483Q259 520 304.0 542.0Q349 564 405 564Q501 564 559.0 500.5Q617 437 617 326Z"/><path transform="translate(1384.674,265.000) scale(0.190000,-0.190000)" fill="#F4A261" d="M32 183H201Q204 154 228.0 136.0Q252 118 287 118Q319 118 336.5 130.5Q354 143 354 163Q354 187 329.0 198.5Q304 210 248 224Q188 238 148.0 253.5Q108 269 79.0 302.5Q50 336 50 393Q50 441 76.5 480.5Q103 520 154.5 543.0Q206 566 277 566Q382 566 442.5 514.0Q503 462 512 376H354Q350 405 328.5 422.0Q307 439 272 439Q242 439 226.0 427.5Q210 416 210 396Q210 372 235.5 360.0Q261 348 315 336Q377 320 416.0 304.5Q455 289 484.5 254.5Q514 220 515 162Q515 113 487.5 74.5Q460 36 408.5 14.0Q357 -8 289 -8Q216 -8 159.0 17.0Q102 42 69.0 85.5Q36 129 32 183Z"/></svg>