<svg xmlns="http://www.w3.org/2000/svg" viewBox="0 0 512 512" width="512" height="512"><rect width="512" height="512" rx="112" fill="#FFF7ED" stroke="#ecdfd2"/><polygon points="96,96 186,150 256,185 326,150 416,96 396,250 256,440 116,250" fill="#D97706"/><polygon points="132,120 186,150 158,182" fill="#7C3F16"/><polygon points="380,120 326,150 354,182" fill="#7C3F16"/><polygon points="198,250 314,250 256,430" fill="#FFF7ED"/><polygon points="192,228 232,222 214,250" fill="#2B160B"/><circle cx="306" cy="236" r="30" fill="#7C3F16"/><circle cx="306" cy="236" r="22" fill="#0E2540"/><circle cx="306" cy="236" r="13" fill="#2563EB"/><circle cx="306" cy="236" r="6" fill="#7DD3FC"/><polygon points="243,372 269,372 256,392" fill="#2B160B"/><circle cx="306" cy="236" r="34" fill="none" stroke="#C2410C" stroke-width="4.5"/><path d="M306,272 C332,300 340,332 332,372" fill="none" stroke="#C2410C" stroke-width="4" stroke-linecap="round" stroke-dasharray="0.5 9"/><circle cx="332" cy="375" r="4.5" fill="none" stroke="#C2410C" stroke-width="3"/></svg>