<svg xmlns="http://www.w3.org/2000/svg" viewBox="0 0 512 512"><rect x="0" y="0" width="512" height="512" rx="112" fill="#FFF7ED"/><g transform="translate(32.744,2.279) scale(0.872093)"><path d="M96,96 L186,150 L256,185 L326,150 L416,96 L396,250 L256,440 L116,250 Z" fill="#D97706"/><path d="M132,120 L186,150 L158,182 Z" fill="#7C3F16"/><path d="M380,120 L326,150 L354,182 Z" fill="#7C3F16"/><path d="M198,250 L314,250 L256,430 Z" fill="#FFF7ED"/><path d="M192,228 L232,222 L214,250 Z" fill="#2B160B"/><circle cx="306" cy="236" r="30" fill="#7C3F16"/><circle cx="306" cy="236" r="22" fill="#0E2540"/><circle cx="306" cy="236" r="13" fill="#2563EB"/><circle cx="306" cy="236" r="6" fill="#7DD3FC"/><path d="M243,372 L269,372 L256,392 Z" fill="#2B160B"/><g><ellipse cx="373" cy="452" rx="60" ry="11" fill="#7C3F16"/><path d="M414,406 c30,2 30,34 -3,34" fill="none" stroke="#7C3F16" stroke-width="12" stroke-linecap="round"/><path d="M325,398 L421,398 L410,436 Q373,455 336,436 Z" fill="#FFF7ED"/><ellipse cx="373" cy="398" rx="48" ry="11" fill="#FFF7ED"/><ellipse cx="373" cy="398" rx="36" ry="7" fill="#2B160B"/><path d="M356,372 q-11,-13 0,-24 q11,-11 0,-24" fill="none" stroke="#7C3F16" stroke-width="7" stroke-linecap="round"/><path d="M390,372 q11,-13 0,-24 q-11,-11 0,-24" fill="none" stroke="#7C3F16" stroke-width="7" stroke-linecap="round"/></g></g></svg>