<svg xmlns="http://www.w3.org/2000/svg" viewBox="0 0 1200 900" width="1200" height="900" role="img" aria-label="Beispiel: defekte Kaffeetasse (FehlerFuchs-Design)">
  <defs>
    <linearGradient id="bg" x1="0" y1="0" x2="0" y2="1">
      <stop offset="0" stop-color="#FFF7ED"/>
      <stop offset="1" stop-color="#F6E4C8"/>
    </linearGradient>
    <linearGradient id="ceramic" x1="0" y1="0" x2="0" y2="1">
      <stop offset="0" stop-color="#FFFFFF"/>
      <stop offset="1" stop-color="#E9DCC9"/>
    </linearGradient>
    <linearGradient id="coffee" x1="0" y1="0" x2="0" y2="1">
      <stop offset="0" stop-color="#5A361C"/>
      <stop offset="1" stop-color="#1A0F08"/>
    </linearGradient>
  </defs>
  <rect width="1200" height="900" fill="url(#bg)"/>
  <rect x="0" y="700" width="1200" height="200" fill="#EAD3AF"/>
  <rect x="0" y="700" width="1200" height="6" fill="#D9BC90"/>
  <ellipse cx="600" cy="690" rx="210" ry="34" fill="#2B160B" opacity="0.14"/>
  <g fill="none" stroke="#B9A690" stroke-width="9" stroke-linecap="round" opacity="0.55">
    <path d="M560,300 C540,268 582,250 560,216 C540,186 582,168 560,138"/>
    <path d="M608,300 C588,270 630,252 608,220 C588,192 630,174 608,146"/>
    <path d="M656,302 C636,272 678,254 656,224 C636,196 678,178 656,150"/>
  </g>
  <ellipse cx="600" cy="680" rx="205" ry="44" fill="#F3E7D2" stroke="#D9C3A1" stroke-width="3"/>
  <ellipse cx="600" cy="672" rx="150" ry="30" fill="#EADBC1"/>
  <path d="M712,402 C812,392 836,500 724,556" fill="none" stroke="#EDE0CC" stroke-width="40" stroke-linecap="round"/>
  <path d="M468,332 C470,520 486,600 506,628 Q600,690 694,628 C714,600 730,520 732,332 Z" fill="url(#ceramic)" stroke="#D9C3A1" stroke-width="3"/>
  <path d="M500,360 C496,500 506,580 520,612" fill="none" stroke="#FFFFFF" stroke-width="14" stroke-linecap="round" opacity="0.6"/>
  <ellipse cx="600" cy="332" rx="132" ry="40" fill="url(#ceramic)" stroke="#D9C3A1" stroke-width="3"/>
  <ellipse cx="600" cy="332" rx="116" ry="31" fill="url(#coffee)"/>
  <ellipse cx="566" cy="324" rx="40" ry="10" fill="#7A4A28" opacity="0.55"/>
  <path d="M648,300 L676,296 L700,312 L672,318 L660,330 Z" fill="url(#bg)" stroke="#C9B392" stroke-width="2"/>
  <path d="M648,300 L660,330 L672,318 Z" fill="#CBB79A"/>
  <path d="M566,360 L580,402 L552,432 L574,478 L552,520 L560,560" fill="none" stroke="#2B160B" stroke-width="5" stroke-linejoin="round" stroke-linecap="round"/>
  <path d="M580,402 L606,418 M552,432 L526,446 M574,478 L600,492" fill="none" stroke="#2B160B" stroke-width="3" stroke-linecap="round"/>
  <path d="M560,560 C552,576 552,590 560,596 C568,590 568,576 560,560 Z" fill="#3A2113"/>
  <ellipse cx="560" cy="612" rx="26" ry="7" fill="#3A2113" opacity="0.7"/>
  <g>
    <circle cx="556" cy="452" r="78" fill="none" stroke="#2B160B" stroke-width="9"/>
    <circle cx="556" cy="452" r="72" fill="none" stroke="#2563EB" stroke-width="3"/>
    <line x1="611" y1="507" x2="660" y2="556" stroke="#2B160B" stroke-width="18" stroke-linecap="round"/>
    <line x1="611" y1="507" x2="660" y2="556" stroke="#7C3F16" stroke-width="7" stroke-linecap="round"/>
  </g>
  <g transform="translate(112,120)">
    <rect x="0" y="0" width="250" height="64" rx="32" fill="#D97706"/>
    <circle cx="42" cy="32" r="20" fill="#FFF7ED"/>
    <path d="M42,20 L54,42 L30,42 Z" fill="#C2410C"/>
    <text x="76" y="41" font-family="Arial, sans-serif" font-weight="bold" font-size="26" fill="#FFF7ED">Defekt</text>
  </g>
  <g transform="translate(1012,742) scale(0.17)" opacity="0.5">
    <path d="M96,96 L186,150 L256,185 L326,150 L416,96 L396,250 L256,440 L116,250 Z" fill="#D97706"/>
    <path d="M132,120 L186,150 L158,182 Z" fill="#7C3F16"/>
    <path d="M380,120 L326,150 L354,182 Z" fill="#7C3F16"/>
    <path d="M198,250 L314,250 L256,430 Z" fill="#FFF7ED"/>
    <path d="M192,228 L232,222 L214,250 Z" fill="#2B160B"/>
    <circle cx="306" cy="236" r="30" fill="#7C3F16"/><circle cx="306" cy="236" r="22" fill="#0E2540"/>
    <circle cx="306" cy="236" r="13" fill="#2563EB"/><circle cx="306" cy="236" r="6" fill="#7DD3FC"/>
    <path d="M243,372 L269,372 L256,392 Z" fill="#2B160B"/>
  </g>
</svg>
