<svg xmlns="http://www.w3.org/2000/svg" viewBox="46 43 525 502" role="img" aria-label="Fehler 404. Der FehlerFuchs beschnuppert eine zersprungene Kaffeetasse in einer Pfuetze und sagt: ganz klarer Fall von 404."><style>
  /* Grundzustand = ruhiges Bild: 404, Tasse, Fuchs rechts, ein Spruch.
     Keine Traene, kein Teleskop, kein Treffer. Wer keine Bewegung will,
     sieht genau das. */
  .traene { opacity: 0; }
  .lid    { opacity: 0; }
  .b2, .b3 { opacity: 0; }
  .teleskop, .strahl, .rotauge, .treffer { opacity: 0; }

  /* Bezugspunkte, einzeln und namentlich - nie global fuer 'g'.
     fuchs/tasse tragen kein eigenes transform, dort sind Bildkoordinaten
     eindeutig. Teleskop und Strahl stecken in einer GEDREHTEN Huelle; fuer
     sie gilt der eigene Kasten, sonst laege der Bezugspunkt im Nirgendwo. */
  .fuchs    { transform-box: view-box; transform-origin: 470px 424px; }
  .tasse    { transform-box: view-box; transform-origin: 286px 484px; }
  .blase    { transform-box: view-box; transform-origin: 386px 330px; }
  .lid      { transform-box: fill-box; transform-origin: center; }
  .traene   { transform-box: fill-box; transform-origin: center; }
  .teleskop { transform-box: fill-box; transform-origin: left center; }
  .strahl   { transform-box: fill-box; transform-origin: left center; }
  .treffer  { transform-box: fill-box; transform-origin: center; }

  @media (prefers-reduced-motion: no-preference) {
    .fuchs  { animation: fuchs  20s ease-in-out infinite; }
    .traene { animation: traene 20s linear infinite; }
    .lid    { animation: blinzeln 20s linear infinite; }
    .tasse  { animation: tasse  20s ease-in-out infinite; }
    /* Die Messung haengt am 60-Sekunden-Takt und faellt damit in genau EINEN
       der drei Durchlaeufe - zusammen mit „Ganz klarer Fall von 404". */
    .rotauge  { animation: rotauge  60s linear infinite; }
    .teleskop { animation: teleskop 60s ease-in-out infinite; }
    .strahl   { animation: strahl   60s ease-in-out infinite; }
    .treffer  { animation: treffer  60s linear infinite; }
    .b1 { animation: blase1 60s linear infinite; }
    .b2 { animation: blase2 60s linear infinite; }
    .b3 { animation: blase3 60s linear infinite; }
  }

  /* Von links herein, hinter der Tasse entlang, rechts anhalten, messen,
     schnuppern, eine Traene, sprechen - und rechts wieder hinaus. Der Sprung
     bei 96,1% liegt ausserhalb des Ausschnitts; er ist der Trick an der
     nahtlosen Schleife.
     Das Messfenster (38-52%) steht in JEDEM Durchlauf still - nur sichtbar
     wird dort einmal je Minute etwas. */
  @keyframes fuchs {
     0%,5%   { transform: translate(-660px,0) rotate(0deg); }
    13%      { transform: translate(-400px,0) rotate(-2deg); }
    20%      { transform: translate(-184px,0) rotate(2deg); }
    30%      { transform: translate(-44px,0) rotate(-2deg); }
    36%      { transform: translate(0,0) rotate(0deg); }
    40%,50%  { transform: translate(-8px,4px) rotate(-4deg); }
    54%      { transform: translate(-30px,16px) rotate(-11deg); }
    57%      { transform: translate(-38px,21px) rotate(-14deg); }
    59%      { transform: translate(-30px,16px) rotate(-11deg); }
    61%      { transform: translate(-38px,21px) rotate(-14deg); }
    63%      { transform: translate(-30px,16px) rotate(-11deg); }
    68%      { transform: translate(-6px,2px) rotate(4deg); }
    73%      { transform: translate(-4px,4px) rotate(6deg); }
    78%      { transform: translate(0,0) rotate(0deg); }
    81%      { transform: translate(0,-7px) rotate(0deg); }
    84%,92%  { transform: translate(0,0) rotate(0deg); }
    96%      { transform: translate(300px,0) rotate(0deg); }
    96.1%,100% { transform: translate(-660px,0) rotate(0deg); }
  }

  /* Ein einzelnes Wackeln, wenn der Fuchs beim Schnuppern anstoesst. */
  @keyframes tasse {
     0%,55%  { transform: rotate(0deg); }
    57%      { transform: rotate(1.4deg); }
    60%      { transform: rotate(-1deg); }
    62%      { transform: rotate(0.6deg); }
    64%,100% { transform: rotate(0deg); }
  }

  /* Eine Traene. Eine. */
  @keyframes traene {
     0%,68%  { opacity:0; transform: translate(0,0) scale(0.3); }
    71%      { opacity:1; transform: translate(0,4px) scale(1); }
    74%      { opacity:1; transform: translate(2px,22px) scale(1); }
    78%      { opacity:1; transform: translate(4px,74px) scale(0.95); }
    80%      { opacity:1; transform: translate(4px,90px) scale(1.25,0.55); }
    82%,100% { opacity:0; transform: translate(4px,90px) scale(1.5,0.3); }
  }

  /* Blinzeln - nur das aufgesetzte Lid. Nicht waehrend der Messung. */
  @keyframes blinzeln {
     0%,65.4% { opacity:0; transform: scaleY(0); }
    65.8%     { opacity:1; transform: scaleY(1); }
    67.4%     { opacity:1; transform: scaleY(1); }
    67.8%     { opacity:0; transform: scaleY(0); }
    86%       { opacity:0; transform: scaleY(0); }
    86.4%     { opacity:1; transform: scaleY(1); }
    87.4%     { opacity:1; transform: scaleY(1); }
    87.8%,100% { opacity:0; transform: scaleY(0); }
  }

  /* --- Die Messung, 60-Sekunden-Takt ------------------------------------
     Zweiter Durchlauf, also 20s Versatz. Innerhalb dieses Durchlaufs liegt
     das Fenster bei 7,6-10,4 s; auf die Minute gerechnet 46,0-52,0%. */
  @keyframes rotauge {
     0%,45.6%  { opacity:0; }
    46.0%      { opacity:1; }
    51.4%      { opacity:1; }
    51.8%,100% { opacity:0; }
  }

  /* Ausfahren, halten, wieder einfahren. scaleX(0.04) statt 0: Bei 0 hat die
     Form keine Ausdehnung mehr, und manche Renderer verlieren dann den
     Bezugskasten. */
  @keyframes teleskop {
     0%,45.8%  { opacity:0; transform: scaleX(0.04); }
    46.0%      { opacity:1; transform: scaleX(0.04); }
    47.4%      { opacity:1; transform: scaleX(1); }
    50.4%      { opacity:1; transform: scaleX(1); }
    51.4%      { opacity:1; transform: scaleX(0.04); }
    51.6%,100% { opacity:0; transform: scaleX(0.04); }
  }

  /* Erst suchen, dann stehenbleiben: zwei Schwenks, danach liegt der Strahl
     auf der Bruchstelle. */
  @keyframes strahl {
     0%,47.4%  { opacity:0; transform: rotate(-8deg); }
    47.7%      { opacity:1; transform: rotate(-8deg); }
    48.5%      { opacity:1; transform: rotate(7deg); }
    49.1%      { opacity:1; transform: rotate(-3deg); }
    49.6%      { opacity:1; transform: rotate(0deg); }
    50.6%      { opacity:1; transform: rotate(0deg); }
    51.0%,100% { opacity:0; transform: rotate(0deg); }
  }

  /* Erfasst - und zur Bestaetigung zweimal kurz aufblinken. */
  @keyframes treffer {
     0%,49.4%  { opacity:0; transform: scale(0.4); }
    49.7%      { opacity:1; transform: scale(1.15); }
    50.0%      { opacity:1; transform: scale(1); }
    50.3%      { opacity:0; transform: scale(1); }
    50.6%      { opacity:1; transform: scale(1); }
    51.0%      { opacity:1; transform: scale(1); }
    51.4%,100% { opacity:0; transform: scale(1.25); }
  }

  @keyframes blase1 {
     0%,24.00% { opacity:0; transform: translate(8px,10px) scale(0.84); }
    25.00%     { opacity:1; transform: translate(0,0) scale(1.04); }
    25.80% { opacity:1; transform: translate(0,0) scale(1); }
    30.67%     { opacity:1; transform: translate(0,0) scale(1); }
    31.67%     { opacity:0; transform: translate(0,-8px) scale(0.94); }
   100%          { opacity:0; transform: translate(0,-8px) scale(0.94); }
  }
  @keyframes blase2 {
     0%,57.33% { opacity:0; transform: translate(8px,10px) scale(0.84); }
    58.33%     { opacity:1; transform: translate(0,0) scale(1.04); }
    59.13% { opacity:1; transform: translate(0,0) scale(1); }
    64.00%     { opacity:1; transform: translate(0,0) scale(1); }
    65.00%     { opacity:0; transform: translate(0,-8px) scale(0.94); }
   100%          { opacity:0; transform: translate(0,-8px) scale(0.94); }
  }
  @keyframes blase3 {
     0%,90.67% { opacity:0; transform: translate(8px,10px) scale(0.84); }
    91.67%     { opacity:1; transform: translate(0,0) scale(1.04); }
    92.47% { opacity:1; transform: translate(0,0) scale(1); }
    97.33%     { opacity:1; transform: translate(0,0) scale(1); }
    98.33%     { opacity:0; transform: translate(0,-8px) scale(0.94); }
   100%          { opacity:0; transform: translate(0,-8px) scale(0.94); }
  }</style><path d="M49 130V268L365 720H556V278H638V130H556V0H385V130ZM397 532 229 278H397Z" fill="#C2410C" transform="translate(169.61,152.00) scale(0.130000,-0.130000)"/><path d="M326 745Q474 745 540.5 646.0Q607 547 607 375Q607 201 540.5 102.0Q474 3 326 3Q178 3 111.5 102.0Q45 201 45 375Q45 547 111.5 646.0Q178 745 326 745ZM326 585Q257 585 235.0 530.5Q213 476 213 375Q213 307 221.0 262.5Q229 218 253.5 190.5Q278 163 326 163Q374 163 398.5 190.5Q423 218 431.0 262.5Q439 307 439 375Q439 476 417.0 530.5Q395 585 326 585Z" fill="#C2410C" transform="translate(257.62,152.00) scale(0.130000,-0.130000)"/><path d="M49 130V268L365 720H556V278H638V130H556V0H385V130ZM397 532 229 278H397Z" fill="#C2410C" transform="translate(342.38,152.00) scale(0.130000,-0.130000)"/><g class="fuchs"><g transform="translate(337.53,285.33) scale(0.51744)"><g transform="translate(0.000,0.000) scale(1.000000)"><path d="M96,96 L186,150 L256,185 L326,150 L416,96 L396,250 L256,440 L116,250 Z" fill="#D97706"/><path d="M132,120 L186,150 L158,182 Z" fill="#7C3F16"/><path d="M380,120 L326,150 L354,182 Z" fill="#7C3F16"/><path d="M198,250 L314,250 L256,430 Z" fill="#FFF7ED"/><path d="M192,228 L232,222 L214,250 Z" fill="#2B160B"/><circle cx="306" cy="236" r="30" fill="#7C3F16"/><circle cx="306" cy="236" r="22" fill="#0E2540"/><circle cx="306" cy="236" r="13" fill="#2563EB"/><circle cx="306" cy="236" r="6" fill="#7DD3FC"/><path d="M243,372 L269,372 L256,392 Z" fill="#2B160B"/></g><g class="lid"><circle cx="306" cy="236" r="32" fill="#D97706"/></g></g><g transform="translate(495.9,407.4) rotate(-171.96)"><g class="teleskop"><rect x="0" y="-10" width="34" height="20" rx="3.5" fill="#2B160B"/><rect x="30" y="-8" width="28" height="16" rx="2.8" fill="#4A2A18"/><rect x="54" y="-6.5" width="22" height="13.0" rx="2.3" fill="#2B160B"/><rect x="29" y="-10.5" width="3" height="21" fill="#FFF7ED"/><rect x="53" y="-8.5" width="3" height="17" fill="#FFF7ED"/><circle cx="76" cy="0" r="9" fill="#B91C1C"/><circle cx="76" cy="0" r="5.5" fill="#DC2626"/></g><g class="strahl"><path d="M76,-5 L168,-24 L168,24 L76,5 Z" fill="#DC2626"/><path d="M76,-2.5 L168,-9 L168,9 L76,2.5 Z" fill="#FCA5A5"/></g></g><g transform="translate(495.9,407.4)"><g class="rotauge"><circle cx="0" cy="0" r="15.5" fill="#B91C1C"/><circle cx="0" cy="0" r="11.4" fill="#DC2626"/><circle cx="0" cy="0" r="6.7" fill="#FCA5A5"/><circle cx="0" cy="0" r="3.1" fill="#FFF7ED"/></g></g><g transform="translate(495.9,427.4)"><g class="traene"><path d="M0,-14 C6,-4 11,3 11,8 A11,11 0 0 1 -11,8 C-11,3 -6,-4 0,-14 Z" fill="#2563EB"/><circle cx="-4" cy="6" r="3.2" fill="#7DD3FC"/></g></g></g><ellipse cx="280" cy="498" rx="150" ry="26" fill="#3E2012"/><ellipse cx="118" cy="506" rx="20" ry="7" fill="#3E2012"/><ellipse cx="450" cy="492" rx="14" ry="6" fill="#3E2012"/><ellipse cx="202" cy="504" rx="34" ry="7" fill="#6B4028"/><g class="tasse"><g transform="translate(286,468)"><ellipse cx="0" cy="16" rx="112" ry="17" fill="#FFF7ED" stroke="#7C3F16" stroke-width="7"/><ellipse cx="0" cy="5" rx="112" ry="17" fill="#FFF7ED" stroke="#7C3F16" stroke-width="7"/><ellipse cx="0" cy="5" rx="60" ry="9" fill="none" stroke="#7C3F16" stroke-width="4"/><path d="M72,-82 c46,6 44,60 -10,62" fill="none" stroke="#7C3F16" stroke-width="11" stroke-linecap="round"/><path d="M-72,-104 H36 L44,-84 L52,-104 H72 L70,-88 L54,-8 Q0,10 -54,-8 L-70,-88 Z" fill="#FFF7ED" stroke="#7C3F16" stroke-width="7" stroke-linejoin="round"/><path d="M-67,-86 H38" stroke="#7C3F16" stroke-width="5" stroke-linecap="round"/><path d="M50,-86 H67" stroke="#7C3F16" stroke-width="5" stroke-linecap="round"/><path d="M-28,-104 L-12,-78 L-30,-54 L-16,-28" fill="none" stroke="#7C3F16" stroke-width="4.5" stroke-linecap="round" stroke-linejoin="round"/></g><g transform="translate(146,486) rotate(-22)"><path d="M-11,-18 L11,-18 L0,18 Z" fill="#FFF7ED" stroke="#7C3F16" stroke-width="6" stroke-linejoin="round"/></g><path d="M418,474 l15,-11 l2,16 Z" fill="#FFF7ED" stroke="#7C3F16" stroke-width="4" stroke-linejoin="round"/></g><g transform="translate(330.0,384.0)"><g class="treffer"><circle cx="0" cy="0" r="21" fill="none" stroke="#B91C1C" stroke-width="5"/><path d="M-30,0 H-21 M21,0 H30 M0,-30 V-21 M0,21 V30" stroke="#B91C1C" stroke-width="5" stroke-linecap="round"/></g></g><g class="blase b1"><path d="M108.77999999999997,168 H363.0 A23,23 0 0 1 386.0,191 V280 A23,23 0 0 1 363.0,303 H346 L408,351 L290,303 H108.77999999999997 A23,23 0 0 1 85.77999999999997,280 V191 A23,23 0 0 1 108.77999999999997,168 Z" fill="#FFF7ED" stroke="#7C3F16" stroke-width="6" stroke-linejoin="round"/><path d="M693 351Q693 248 647.5 168.0Q602 88 518.5 44.0Q435 0 325 0H62V702H325Q436 702 519.0 658.0Q602 614 647.5 534.5Q693 455 693 351ZM519 351Q519 448 465.0 502.0Q411 556 314 556H233V148H314Q411 148 465.0 201.0Q519 254 519 351Z" fill="#2B160B" transform="translate(111.78,216.00) scale(0.028000,-0.028000)"/><path d="M274 566Q333 566 377.5 542.0Q422 518 446 479V558H617V0H446V79Q421 40 376.5 16.0Q332 -8 273 -8Q205 -8 149.0 27.5Q93 63 60.5 128.5Q28 194 28 280Q28 366 60.5 431.0Q93 496 149.0 531.0Q205 566 274 566ZM324 417Q273 417 237.5 380.5Q202 344 202 280Q202 216 237.5 178.5Q273 141 324 141Q375 141 410.5 178.0Q446 215 446 279Q446 343 410.5 380.0Q375 417 324 417Z" fill="#2B160B" transform="translate(132.14,216.00) scale(0.028000,-0.028000)"/><path d="M32 183H201Q204 154 228.0 136.0Q252 118 287 118Q319 118 336.5 130.5Q354 143 354 163Q354 187 329.0 198.5Q304 210 248 224Q188 238 148.0 253.5Q108 269 79.0 302.5Q50 336 50 393Q50 441 76.5 480.5Q103 520 154.5 543.0Q206 566 277 566Q382 566 442.5 514.0Q503 462 512 376H354Q350 405 328.5 422.0Q307 439 272 439Q242 439 226.0 427.5Q210 416 210 396Q210 372 235.5 360.0Q261 348 315 336Q377 320 416.0 304.5Q455 289 484.5 254.5Q514 220 515 162Q515 113 487.5 74.5Q460 36 408.5 14.0Q357 -8 289 -8Q216 -8 159.0 17.0Q102 42 69.0 85.5Q36 129 32 183Z" fill="#2B160B" transform="translate(151.15,216.00) scale(0.028000,-0.028000)"/><path d="M46 708Q46 748 74.5 774.5Q103 801 148 801Q192 801 220.5 774.5Q249 748 249 708Q249 669 220.5 642.5Q192 616 148 616Q103 616 74.5 642.5Q46 669 46 708ZM233 558V0H62V558Z" fill="#2B160B" transform="translate(172.71,216.00) scale(0.028000,-0.028000)"/><path d="M32 183H201Q204 154 228.0 136.0Q252 118 287 118Q319 118 336.5 130.5Q354 143 354 163Q354 187 329.0 198.5Q304 210 248 224Q188 238 148.0 253.5Q108 269 79.0 302.5Q50 336 50 393Q50 441 76.5 480.5Q103 520 154.5 543.0Q206 566 277 566Q382 566 442.5 514.0Q503 462 512 376H354Q350 405 328.5 422.0Q307 439 272 439Q242 439 226.0 427.5Q210 416 210 396Q210 372 235.5 360.0Q261 348 315 336Q377 320 416.0 304.5Q455 289 484.5 254.5Q514 220 515 162Q515 113 487.5 74.5Q460 36 408.5 14.0Q357 -8 289 -8Q216 -8 159.0 17.0Q102 42 69.0 85.5Q36 129 32 183Z" fill="#2B160B" transform="translate(180.97,216.00) scale(0.028000,-0.028000)"/><path d="M373 145V0H286Q193 0 141.0 45.5Q89 91 89 194V416H21V558H89V694H260V558H372V416H260V192Q260 167 272.0 156.0Q284 145 312 145Z" fill="#2B160B" transform="translate(196.59,216.00) scale(0.028000,-0.028000)"/><path d="M403 0 233 234V0H62V740H233V331L402 558H613L381 278L615 0Z" fill="#2B160B" transform="translate(213.90,216.00) scale(0.028000,-0.028000)"/><path d="M585 238H198Q202 186 231.5 158.5Q261 131 304 131Q368 131 393 185H575Q561 130 524.5 86.0Q488 42 433.0 17.0Q378 -8 310 -8Q228 -8 164.0 27.0Q100 62 64.0 127.0Q28 192 28 279Q28 366 63.5 431.0Q99 496 163.0 531.0Q227 566 310 566Q391 566 454.0 532.0Q517 498 552.5 435.0Q588 372 588 288Q588 264 585 238ZM413 333Q413 377 383.0 403.0Q353 429 308 429Q265 429 235.5 404.0Q206 379 199 333Z" fill="#2B160B" transform="translate(231.20,216.00) scale(0.028000,-0.028000)"/><path d="M46 708Q46 748 74.5 774.5Q103 801 148 801Q192 801 220.5 774.5Q249 748 249 708Q249 669 220.5 642.5Q192 616 148 616Q103 616 74.5 642.5Q46 669 46 708ZM233 558V0H62V558Z" fill="#2B160B" transform="translate(248.45,216.00) scale(0.028000,-0.028000)"/><path d="M617 326V0H447V303Q447 359 418.0 390.0Q389 421 340 421Q291 421 262.0 390.0Q233 359 233 303V0H62V558H233V484Q259 521 303.0 542.5Q347 564 402 564Q500 564 558.5 500.5Q617 437 617 326Z" fill="#2B160B" transform="translate(256.71,216.00) scale(0.028000,-0.028000)"/><path d="M446 479V558H617V1Q617 -76 586.5 -138.5Q556 -201 493.5 -238.0Q431 -275 338 -275Q214 -275 137.0 -216.5Q60 -158 49 -58H218Q226 -90 256.0 -108.5Q286 -127 330 -127Q383 -127 414.5 -96.5Q446 -66 446 1V80Q421 41 377.0 16.5Q333 -8 274 -8Q205 -8 149.0 27.5Q93 63 60.5 128.5Q28 194 28 280Q28 366 60.5 431.0Q93 496 149.0 531.0Q205 566 274 566Q333 566 377.5 542.0Q422 518 446 479ZM324 417Q273 417 237.5 380.5Q202 344 202 280Q202 216 237.5 178.5Q273 141 324 141Q375 141 410.5 178.0Q446 215 446 279Q446 343 410.5 380.0Q375 417 324 417Z" fill="#2B160B" transform="translate(281.52,216.00) scale(0.028000,-0.028000)"/><path d="M613 558V0H442V76Q416 39 371.5 16.5Q327 -6 273 -6Q209 -6 160.0 22.5Q111 51 84.0 105.0Q57 159 57 232V558H227V255Q227 199 256.0 168.0Q285 137 334 137Q384 137 413.0 168.0Q442 199 442 255V558Z" fill="#2B160B" transform="translate(300.53,216.00) scale(0.028000,-0.028000)"/><path d="M373 145V0H286Q193 0 141.0 45.5Q89 91 89 194V416H21V558H89V694H260V558H372V416H260V192Q260 167 272.0 156.0Q284 145 312 145Z" fill="#2B160B" transform="translate(319.40,216.00) scale(0.028000,-0.028000)"/><path d="M585 238H198Q202 186 231.5 158.5Q261 131 304 131Q368 131 393 185H575Q561 130 524.5 86.0Q488 42 433.0 17.0Q378 -8 310 -8Q228 -8 164.0 27.0Q100 62 64.0 127.0Q28 192 28 279Q28 366 63.5 431.0Q99 496 163.0 531.0Q227 566 310 566Q391 566 454.0 532.0Q517 498 552.5 435.0Q588 372 588 288Q588 264 585 238ZM413 333Q413 377 383.0 403.0Q353 429 308 429Q265 429 235.5 404.0Q206 379 199 333Z" fill="#2B160B" transform="translate(330.77,216.00) scale(0.028000,-0.028000)"/><path d="M408 564V383H361Q297 383 265.0 355.5Q233 328 233 259V0H62V558H233V465Q263 511 308.0 537.5Q353 564 408 564Z" fill="#2B160B" transform="translate(348.02,216.00) scale(0.028000,-0.028000)"/><path d="M42 210H224Q228 171 251.0 150.5Q274 130 311 130Q349 130 371.0 147.5Q393 165 393 196Q393 222 375.5 239.0Q358 256 332.5 267.0Q307 278 260 292Q192 313 149.0 334.0Q106 355 75.0 396.0Q44 437 44 503Q44 601 115.0 656.5Q186 712 300 712Q416 712 487.0 656.5Q558 601 563 502H378Q376 536 353.0 555.5Q330 575 294 575Q263 575 244.0 558.5Q225 542 225 511Q225 477 257.0 458.0Q289 439 357 417Q425 394 467.5 373.0Q510 352 541.0 312.0Q572 272 572 209Q572 149 541.5 100.0Q511 51 453.0 22.0Q395 -7 316 -7Q239 -7 178.0 18.0Q117 43 80.5 92.0Q44 141 42 210Z" fill="#2B160B" transform="translate(123.09,251.00) scale(0.028000,-0.028000)"/><path d="M373 145V0H286Q193 0 141.0 45.5Q89 91 89 194V416H21V558H89V694H260V558H372V416H260V192Q260 167 272.0 156.0Q284 145 312 145Z" fill="#2B160B" transform="translate(140.31,251.00) scale(0.028000,-0.028000)"/><path d="M274 566Q333 566 377.5 542.0Q422 518 446 479V558H617V0H446V79Q421 40 376.5 16.0Q332 -8 273 -8Q205 -8 149.0 27.5Q93 63 60.5 128.5Q28 194 28 280Q28 366 60.5 431.0Q93 496 149.0 531.0Q205 566 274 566ZM324 417Q273 417 237.5 380.5Q202 344 202 280Q202 216 237.5 178.5Q273 141 324 141Q375 141 410.5 178.0Q446 215 446 279Q446 343 410.5 380.0Q375 417 324 417Z" fill="#2B160B" transform="translate(151.68,251.00) scale(0.028000,-0.028000)"/><path d="M408 564V383H361Q297 383 265.0 355.5Q233 328 233 259V0H62V558H233V465Q263 511 308.0 537.5Q353 564 408 564Z" fill="#2B160B" transform="translate(170.69,251.00) scale(0.028000,-0.028000)"/><path d="M373 145V0H286Q193 0 141.0 45.5Q89 91 89 194V416H21V558H89V694H260V558H372V416H260V192Q260 167 272.0 156.0Q284 145 312 145Z" fill="#2B160B" transform="translate(182.68,251.00) scale(0.028000,-0.028000)"/><path d="M46 708Q46 748 74.5 774.5Q103 801 148 801Q192 801 220.5 774.5Q249 748 249 708Q249 669 220.5 642.5Q192 616 148 616Q103 616 74.5 642.5Q46 669 46 708ZM233 558V0H62V558Z" fill="#2B160B" transform="translate(199.98,251.00) scale(0.028000,-0.028000)"/><path d="M617 326V0H447V303Q447 359 418.0 390.0Q389 421 340 421Q291 421 262.0 390.0Q233 359 233 303V0H62V558H233V484Q259 521 303.0 542.5Q347 564 402 564Q500 564 558.5 500.5Q617 437 617 326Z" fill="#2B160B" transform="translate(208.24,251.00) scale(0.028000,-0.028000)"/><path d="M274 566Q329 566 374.5 543.0Q420 520 446 481V740H617V0H446V80Q422 40 377.5 16.0Q333 -8 274 -8Q205 -8 149.0 27.5Q93 63 60.5 128.5Q28 194 28 280Q28 366 60.5 431.0Q93 496 149.0 531.0Q205 566 274 566ZM324 417Q273 417 237.5 380.5Q202 344 202 280Q202 216 237.5 178.5Q273 141 324 141Q375 141 410.5 178.0Q446 215 446 279Q446 343 410.5 380.0Q375 417 324 417Z" fill="#2B160B" transform="translate(233.05,251.00) scale(0.028000,-0.028000)"/><path d="M585 238H198Q202 186 231.5 158.5Q261 131 304 131Q368 131 393 185H575Q561 130 524.5 86.0Q488 42 433.0 17.0Q378 -8 310 -8Q228 -8 164.0 27.0Q100 62 64.0 127.0Q28 192 28 279Q28 366 63.5 431.0Q99 496 163.0 531.0Q227 566 310 566Q391 566 454.0 532.0Q517 498 552.5 435.0Q588 372 588 288Q588 264 585 238ZM413 333Q413 377 383.0 403.0Q353 429 308 429Q265 429 235.5 404.0Q206 379 199 333Z" fill="#2B160B" transform="translate(252.06,251.00) scale(0.028000,-0.028000)"/><path d="M617 326V0H447V303Q447 359 418.0 390.0Q389 421 340 421Q291 421 262.0 390.0Q233 359 233 303V0H62V558H233V484Q259 521 303.0 542.5Q347 564 402 564Q500 564 558.5 500.5Q617 437 617 326Z" fill="#2B160B" transform="translate(269.31,251.00) scale(0.028000,-0.028000)"/><path d="M567 702V565H381V0H210V565H24V702Z" fill="#2B160B" transform="translate(294.12,251.00) scale(0.028000,-0.028000)"/><path d="M274 566Q333 566 377.5 542.0Q422 518 446 479V558H617V0H446V79Q421 40 376.5 16.0Q332 -8 273 -8Q205 -8 149.0 27.5Q93 63 60.5 128.5Q28 194 28 280Q28 366 60.5 431.0Q93 496 149.0 531.0Q205 566 274 566ZM324 417Q273 417 237.5 380.5Q202 344 202 280Q202 216 237.5 178.5Q273 141 324 141Q375 141 410.5 178.0Q446 215 446 279Q446 343 410.5 380.0Q375 417 324 417Z" fill="#2B160B" transform="translate(310.66,251.00) scale(0.028000,-0.028000)"/><path d="M446 479V558H617V1Q617 -76 586.5 -138.5Q556 -201 493.5 -238.0Q431 -275 338 -275Q214 -275 137.0 -216.5Q60 -158 49 -58H218Q226 -90 256.0 -108.5Q286 -127 330 -127Q383 -127 414.5 -96.5Q446 -66 446 1V80Q421 41 377.0 16.5Q333 -8 274 -8Q205 -8 149.0 27.5Q93 63 60.5 128.5Q28 194 28 280Q28 366 60.5 431.0Q93 496 149.0 531.0Q205 566 274 566Q333 566 377.5 542.0Q422 518 446 479ZM324 417Q273 417 237.5 380.5Q202 344 202 280Q202 216 237.5 178.5Q273 141 324 141Q375 141 410.5 178.0Q446 215 446 279Q446 343 410.5 380.0Q375 417 324 417Z" fill="#2B160B" transform="translate(329.68,251.00) scale(0.028000,-0.028000)"/><path d="M625 422V280H70V422Z" fill="#2B160B" transform="translate(195.11,286.00) scale(0.028000,-0.028000)"/><path d="M49 130V268L365 720H556V278H638V130H556V0H385V130ZM397 532 229 278H397Z" fill="#2B160B" transform="translate(220.50,286.00) scale(0.028000,-0.028000)"/><path d="M326 745Q474 745 540.5 646.0Q607 547 607 375Q607 201 540.5 102.0Q474 3 326 3Q178 3 111.5 102.0Q45 201 45 375Q45 547 111.5 646.0Q178 745 326 745ZM326 585Q257 585 235.0 530.5Q213 476 213 375Q213 307 221.0 262.5Q229 218 253.5 190.5Q278 163 326 163Q374 163 398.5 190.5Q423 218 431.0 262.5Q439 307 439 375Q439 476 417.0 530.5Q395 585 326 585Z" fill="#2B160B" transform="translate(239.46,286.00) scale(0.028000,-0.028000)"/><path d="M49 130V268L365 720H556V278H638V130H556V0H385V130ZM397 532 229 278H397Z" fill="#2B160B" transform="translate(257.72,286.00) scale(0.028000,-0.028000)"/></g><g class="blase b2"><path d="M135.38,168 H363.0 A23,23 0 0 1 386.0,191 V245 A23,23 0 0 1 363.0,268 H346 L408,316 L290,268 H135.38 A23,23 0 0 1 112.38,245 V191 A23,23 0 0 1 135.38,168 Z" fill="#FFF7ED" stroke="#7C3F16" stroke-width="6" stroke-linejoin="round"/><path d="M528 480Q509 515 473.5 533.5Q438 552 390 552Q307 552 257.0 497.5Q207 443 207 352Q207 255 259.5 200.5Q312 146 404 146Q467 146 510.5 178.0Q554 210 574 270H357V396H729V237Q710 173 664.5 118.0Q619 63 549.0 29.0Q479 -5 391 -5Q287 -5 205.5 40.5Q124 86 78.5 167.0Q33 248 33 352Q33 456 78.5 537.5Q124 619 205.0 664.5Q286 710 390 710Q516 710 602.5 649.0Q689 588 717 480Z" fill="#2B160B" transform="translate(138.38,216.00) scale(0.028000,-0.028000)"/><path d="M274 566Q333 566 377.5 542.0Q422 518 446 479V558H617V0H446V79Q421 40 376.5 16.0Q332 -8 273 -8Q205 -8 149.0 27.5Q93 63 60.5 128.5Q28 194 28 280Q28 366 60.5 431.0Q93 496 149.0 531.0Q205 566 274 566ZM324 417Q273 417 237.5 380.5Q202 344 202 280Q202 216 237.5 178.5Q273 141 324 141Q375 141 410.5 178.0Q446 215 446 279Q446 343 410.5 380.0Q375 417 324 417Z" fill="#2B160B" transform="translate(159.72,216.00) scale(0.028000,-0.028000)"/><path d="M617 326V0H447V303Q447 359 418.0 390.0Q389 421 340 421Q291 421 262.0 390.0Q233 359 233 303V0H62V558H233V484Q259 521 303.0 542.5Q347 564 402 564Q500 564 558.5 500.5Q617 437 617 326Z" fill="#2B160B" transform="translate(178.73,216.00) scale(0.028000,-0.028000)"/><path d="M222 141H464V0H31V136L263 417H33V558H459V422Z" fill="#2B160B" transform="translate(197.60,216.00) scale(0.028000,-0.028000)"/><path d="M403 0 233 234V0H62V740H233V331L402 558H613L381 278L615 0Z" fill="#2B160B" transform="translate(217.42,216.00) scale(0.028000,-0.028000)"/><path d="M233 740V0H62V740Z" fill="#2B160B" transform="translate(234.73,216.00) scale(0.028000,-0.028000)"/><path d="M274 566Q333 566 377.5 542.0Q422 518 446 479V558H617V0H446V79Q421 40 376.5 16.0Q332 -8 273 -8Q205 -8 149.0 27.5Q93 63 60.5 128.5Q28 194 28 280Q28 366 60.5 431.0Q93 496 149.0 531.0Q205 566 274 566ZM324 417Q273 417 237.5 380.5Q202 344 202 280Q202 216 237.5 178.5Q273 141 324 141Q375 141 410.5 178.0Q446 215 446 279Q446 343 410.5 380.0Q375 417 324 417Z" fill="#2B160B" transform="translate(242.99,216.00) scale(0.028000,-0.028000)"/><path d="M408 564V383H361Q297 383 265.0 355.5Q233 328 233 259V0H62V558H233V465Q263 511 308.0 537.5Q353 564 408 564Z" fill="#2B160B" transform="translate(262.00,216.00) scale(0.028000,-0.028000)"/><path d="M585 238H198Q202 186 231.5 158.5Q261 131 304 131Q368 131 393 185H575Q561 130 524.5 86.0Q488 42 433.0 17.0Q378 -8 310 -8Q228 -8 164.0 27.0Q100 62 64.0 127.0Q28 192 28 279Q28 366 63.5 431.0Q99 496 163.0 531.0Q227 566 310 566Q391 566 454.0 532.0Q517 498 552.5 435.0Q588 372 588 288Q588 264 585 238ZM413 333Q413 377 383.0 403.0Q353 429 308 429Q265 429 235.5 404.0Q206 379 199 333Z" fill="#2B160B" transform="translate(273.98,216.00) scale(0.028000,-0.028000)"/><path d="M408 564V383H361Q297 383 265.0 355.5Q233 328 233 259V0H62V558H233V465Q263 511 308.0 537.5Q353 564 408 564Z" fill="#2B160B" transform="translate(291.23,216.00) scale(0.028000,-0.028000)"/><path d="M519 702V565H233V417H447V284H233V0H62V702Z" fill="#2B160B" transform="translate(309.15,216.00) scale(0.028000,-0.028000)"/><path d="M274 566Q333 566 377.5 542.0Q422 518 446 479V558H617V0H446V79Q421 40 376.5 16.0Q332 -8 273 -8Q205 -8 149.0 27.5Q93 63 60.5 128.5Q28 194 28 280Q28 366 60.5 431.0Q93 496 149.0 531.0Q205 566 274 566ZM324 417Q273 417 237.5 380.5Q202 344 202 280Q202 216 237.5 178.5Q273 141 324 141Q375 141 410.5 178.0Q446 215 446 279Q446 343 410.5 380.0Q375 417 324 417Z" fill="#2B160B" transform="translate(324.47,216.00) scale(0.028000,-0.028000)"/><path d="M233 740V0H62V740Z" fill="#2B160B" transform="translate(343.48,216.00) scale(0.028000,-0.028000)"/><path d="M233 740V0H62V740Z" fill="#2B160B" transform="translate(351.74,216.00) scale(0.028000,-0.028000)"/><path d="M313 160 434 558H616L418 0H207L9 558H192Z" fill="#2B160B" transform="translate(191.02,251.00) scale(0.028000,-0.028000)"/><path d="M28 279Q28 365 66.0 430.5Q104 496 170.0 531.0Q236 566 318 566Q400 566 466.0 531.0Q532 496 570.0 430.5Q608 365 608 279Q608 193 569.5 127.5Q531 62 464.5 27.0Q398 -8 316 -8Q234 -8 168.5 27.0Q103 62 65.5 127.0Q28 192 28 279ZM434 279Q434 346 400.5 382.0Q367 418 318 418Q268 418 235.0 382.5Q202 347 202 279Q202 212 234.5 176.0Q267 140 316 140Q365 140 399.5 176.0Q434 212 434 279Z" fill="#2B160B" transform="translate(208.55,251.00) scale(0.028000,-0.028000)"/><path d="M617 326V0H447V303Q447 359 418.0 390.0Q389 421 340 421Q291 421 262.0 390.0Q233 359 233 303V0H62V558H233V484Q259 521 303.0 542.5Q347 564 402 564Q500 564 558.5 500.5Q617 437 617 326Z" fill="#2B160B" transform="translate(226.38,251.00) scale(0.028000,-0.028000)"/><path d="M49 130V268L365 720H556V278H638V130H556V0H385V130ZM397 532 229 278H397Z" fill="#2B160B" transform="translate(251.19,251.00) scale(0.028000,-0.028000)"/><path d="M326 745Q474 745 540.5 646.0Q607 547 607 375Q607 201 540.5 102.0Q474 3 326 3Q178 3 111.5 102.0Q45 201 45 375Q45 547 111.5 646.0Q178 745 326 745ZM326 585Q257 585 235.0 530.5Q213 476 213 375Q213 307 221.0 262.5Q229 218 253.5 190.5Q278 163 326 163Q374 163 398.5 190.5Q423 218 431.0 262.5Q439 307 439 375Q439 476 417.0 530.5Q395 585 326 585Z" fill="#2B160B" transform="translate(270.15,251.00) scale(0.028000,-0.028000)"/><path d="M49 130V268L365 720H556V278H638V130H556V0H385V130ZM397 532 229 278H397Z" fill="#2B160B" transform="translate(288.40,251.00) scale(0.028000,-0.028000)"/></g><g class="blase b3"><path d="M83.21600000000001,168 H363.0 A23,23 0 0 1 386.0,191 V245 A23,23 0 0 1 363.0,268 H346 L408,316 L290,268 H83.21600000000001 A23,23 0 0 1 60.21600000000001,245 V191 A23,23 0 0 1 83.21600000000001,168 Z" fill="#FFF7ED" stroke="#7C3F16" stroke-width="6" stroke-linejoin="round"/><path d="M693 351Q693 248 647.5 168.0Q602 88 518.5 44.0Q435 0 325 0H62V702H325Q436 702 519.0 658.0Q602 614 647.5 534.5Q693 455 693 351ZM519 351Q519 448 465.0 502.0Q411 556 314 556H233V148H314Q411 148 465.0 201.0Q519 254 519 351Z" fill="#2B160B" transform="translate(86.22,216.00) scale(0.028000,-0.028000)"/><path d="M585 238H198Q202 186 231.5 158.5Q261 131 304 131Q368 131 393 185H575Q561 130 524.5 86.0Q488 42 433.0 17.0Q378 -8 310 -8Q228 -8 164.0 27.0Q100 62 64.0 127.0Q28 192 28 279Q28 366 63.5 431.0Q99 496 163.0 531.0Q227 566 310 566Q391 566 454.0 532.0Q517 498 552.5 435.0Q588 372 588 288Q588 264 585 238ZM413 333Q413 377 383.0 403.0Q353 429 308 429Q265 429 235.5 404.0Q206 379 199 333Z" fill="#2B160B" transform="translate(106.57,216.00) scale(0.028000,-0.028000)"/><path d="M408 564V383H361Q297 383 265.0 355.5Q233 328 233 259V0H62V558H233V465Q263 511 308.0 537.5Q353 564 408 564Z" fill="#2B160B" transform="translate(123.82,216.00) scale(0.028000,-0.028000)"/><path d="M386 710Q511 710 600.0 644.0Q689 578 719 464H531Q510 508 471.5 531.0Q433 554 384 554Q305 554 256.0 499.0Q207 444 207 352Q207 260 256.0 205.0Q305 150 384 150Q433 150 471.5 173.0Q510 196 531 240H719Q689 126 600.0 60.5Q511 -5 386 -5Q284 -5 203.5 40.5Q123 86 78.0 167.0Q33 248 33 352Q33 456 78.0 537.5Q123 619 203.5 664.5Q284 710 386 710Z" fill="#2B160B" transform="translate(141.74,216.00) scale(0.028000,-0.028000)"/><path d="M28 279Q28 365 66.0 430.5Q104 496 170.0 531.0Q236 566 318 566Q400 566 466.0 531.0Q532 496 570.0 430.5Q608 365 608 279Q608 193 569.5 127.5Q531 62 464.5 27.0Q398 -8 316 -8Q234 -8 168.5 27.0Q103 62 65.5 127.0Q28 192 28 279ZM434 279Q434 346 400.5 382.0Q367 418 318 418Q268 418 235.0 382.5Q202 347 202 279Q202 212 234.5 176.0Q267 140 316 140Q365 140 399.5 176.0Q434 212 434 279Z" fill="#2B160B" transform="translate(163.08,216.00) scale(0.028000,-0.028000)"/><path d="M1001 326V0H831V303Q831 357 802.5 386.5Q774 416 724 416Q674 416 645.5 386.5Q617 357 617 303V0H447V303Q447 357 418.5 386.5Q390 416 340 416Q290 416 261.5 386.5Q233 357 233 303V0H62V558H233V488Q259 523 301.0 543.5Q343 564 396 564Q459 564 508.5 537.0Q558 510 586 460Q615 506 665.0 535.0Q715 564 774 564Q878 564 939.5 501.0Q1001 438 1001 326Z" fill="#2B160B" transform="translate(180.91,216.00) scale(0.028000,-0.028000)"/><path d="M405 566Q474 566 530.0 531.0Q586 496 618.5 431.0Q651 366 651 280Q651 194 618.5 128.5Q586 63 530.0 27.5Q474 -8 405 -8Q347 -8 302.5 16.0Q258 40 233 78V-266H62V558H233V479Q258 518 302.0 542.0Q346 566 405 566ZM354 417Q303 417 267.5 380.0Q232 343 232 279Q232 215 267.5 178.0Q303 141 354 141Q405 141 441.0 178.5Q477 216 477 280Q477 344 441.5 380.5Q406 417 354 417Z" fill="#2B160B" transform="translate(210.56,216.00) scale(0.028000,-0.028000)"/><path d="M613 558V0H442V76Q416 39 371.5 16.5Q327 -6 273 -6Q209 -6 160.0 22.5Q111 51 84.0 105.0Q57 159 57 232V558H227V255Q227 199 256.0 168.0Q285 137 334 137Q384 137 413.0 168.0Q442 199 442 255V558Z" fill="#2B160B" transform="translate(229.58,216.00) scale(0.028000,-0.028000)"/><path d="M373 145V0H286Q193 0 141.0 45.5Q89 91 89 194V416H21V558H89V694H260V558H372V416H260V192Q260 167 272.0 156.0Q284 145 312 145Z" fill="#2B160B" transform="translate(248.45,216.00) scale(0.028000,-0.028000)"/><path d="M585 238H198Q202 186 231.5 158.5Q261 131 304 131Q368 131 393 185H575Q561 130 524.5 86.0Q488 42 433.0 17.0Q378 -8 310 -8Q228 -8 164.0 27.0Q100 62 64.0 127.0Q28 192 28 279Q28 366 63.5 431.0Q99 496 163.0 531.0Q227 566 310 566Q391 566 454.0 532.0Q517 498 552.5 435.0Q588 372 588 288Q588 264 585 238ZM413 333Q413 377 383.0 403.0Q353 429 308 429Q265 429 235.5 404.0Q206 379 199 333Z" fill="#2B160B" transform="translate(259.82,216.00) scale(0.028000,-0.028000)"/><path d="M408 564V383H361Q297 383 265.0 355.5Q233 328 233 259V0H62V558H233V465Q263 511 308.0 537.5Q353 564 408 564Z" fill="#2B160B" transform="translate(277.06,216.00) scale(0.028000,-0.028000)"/><path d="M32 183H201Q204 154 228.0 136.0Q252 118 287 118Q319 118 336.5 130.5Q354 143 354 163Q354 187 329.0 198.5Q304 210 248 224Q188 238 148.0 253.5Q108 269 79.0 302.5Q50 336 50 393Q50 441 76.5 480.5Q103 520 154.5 543.0Q206 566 277 566Q382 566 442.5 514.0Q503 462 512 376H354Q350 405 328.5 422.0Q307 439 272 439Q242 439 226.0 427.5Q210 416 210 396Q210 372 235.5 360.0Q261 348 315 336Q377 320 416.0 304.5Q455 289 484.5 254.5Q514 220 515 162Q515 113 487.5 74.5Q460 36 408.5 14.0Q357 -8 289 -8Q216 -8 159.0 17.0Q102 42 69.0 85.5Q36 129 32 183Z" fill="#2B160B" transform="translate(294.98,216.00) scale(0.028000,-0.028000)"/><path d="M274 566Q333 566 377.5 542.0Q422 518 446 479V558H617V0H446V79Q421 40 376.5 16.0Q332 -8 273 -8Q205 -8 149.0 27.5Q93 63 60.5 128.5Q28 194 28 280Q28 366 60.5 431.0Q93 496 149.0 531.0Q205 566 274 566ZM324 417Q273 417 237.5 380.5Q202 344 202 280Q202 216 237.5 178.5Q273 141 324 141Q375 141 410.5 178.0Q446 215 446 279Q446 343 410.5 380.0Q375 417 324 417Z" fill="#2B160B" transform="translate(310.61,216.00) scale(0.028000,-0.028000)"/><path d="M446 479V558H617V1Q617 -76 586.5 -138.5Q556 -201 493.5 -238.0Q431 -275 338 -275Q214 -275 137.0 -216.5Q60 -158 49 -58H218Q226 -90 256.0 -108.5Q286 -127 330 -127Q383 -127 414.5 -96.5Q446 -66 446 1V80Q421 41 377.0 16.5Q333 -8 274 -8Q205 -8 149.0 27.5Q93 63 60.5 128.5Q28 194 28 280Q28 366 60.5 431.0Q93 496 149.0 531.0Q205 566 274 566Q333 566 377.5 542.0Q422 518 446 479ZM324 417Q273 417 237.5 380.5Q202 344 202 280Q202 216 237.5 178.5Q273 141 324 141Q375 141 410.5 178.0Q446 215 446 279Q446 343 410.5 380.0Q375 417 324 417Z" fill="#2B160B" transform="translate(329.62,216.00) scale(0.028000,-0.028000)"/><path d="M373 145V0H286Q193 0 141.0 45.5Q89 91 89 194V416H21V558H89V694H260V558H372V416H260V192Q260 167 272.0 156.0Q284 145 312 145Z" fill="#2B160B" transform="translate(348.63,216.00) scale(0.028000,-0.028000)"/><path d="M78 163H253L141 -105H26ZM305 163H479L367 -105H253Z" fill="#2B160B" transform="translate(170.05,251.00) scale(0.028000,-0.028000)"/><path d="M690 0H519L233 433V0H62V702H233L519 267V702H690Z" fill="#2B160B" transform="translate(184.61,251.00) scale(0.028000,-0.028000)"/><path d="M585 238H198Q202 186 231.5 158.5Q261 131 304 131Q368 131 393 185H575Q561 130 524.5 86.0Q488 42 433.0 17.0Q378 -8 310 -8Q228 -8 164.0 27.0Q100 62 64.0 127.0Q28 192 28 279Q28 366 63.5 431.0Q99 496 163.0 531.0Q227 566 310 566Q391 566 454.0 532.0Q517 498 552.5 435.0Q588 372 588 288Q588 264 585 238ZM413 333Q413 377 383.0 403.0Q353 429 308 429Q265 429 235.5 404.0Q206 379 199 333Z" fill="#2B160B" transform="translate(205.66,251.00) scale(0.028000,-0.028000)"/><path d="M46 708Q46 748 74.5 774.5Q103 801 148 801Q192 801 220.5 774.5Q249 748 249 708Q249 669 220.5 642.5Q192 616 148 616Q103 616 74.5 642.5Q46 669 46 708ZM233 558V0H62V558Z" fill="#2B160B" transform="translate(222.91,251.00) scale(0.028000,-0.028000)"/><path d="M617 326V0H447V303Q447 359 418.0 390.0Q389 421 340 421Q291 421 262.0 390.0Q233 359 233 303V0H62V558H233V484Q259 521 303.0 542.5Q347 564 402 564Q500 564 558.5 500.5Q617 437 617 326Z" fill="#2B160B" transform="translate(231.17,251.00) scale(0.028000,-0.028000)"/><path d="M213 434H38L150 702H265ZM440 434H266L378 702H492Z" fill="#2B160B" transform="translate(250.04,251.00) scale(0.028000,-0.028000)"/><path d="M287 727 267 248H122L102 727ZM95 84Q95 124 123.5 151.0Q152 178 197 178Q241 178 269.5 151.0Q298 124 298 84Q298 45 269.5 18.5Q241 -8 197 -8Q152 -8 123.5 18.5Q95 45 95 84Z" fill="#2B160B" transform="translate(265.19,251.00) scale(0.028000,-0.028000)"/></g></svg>