<svg xmlns="http://www.w3.org/2000/svg" viewBox="60 80 392 392" width="392" height="392">
<path d="M96,96 L186,150 L256,185 L326,150 L416,96 L396,250 L256,440 L116,250 Z" fill="#D97706"/>
<path d="M132,120 L186,150 L158,182 Z" fill="#7C3F16"/>
<path d="M380,120 L326,150 L354,182 Z" fill="#7C3F16"/>
<path d="M198,250 L314,250 L256,430 Z" fill="#FFF7ED"/>
<path d="M192,228 L232,222 L214,250 Z" fill="#2B160B"/>
<path d="M243,372 L269,372 L256,392 Z" fill="#2B160B"/>
<ellipse cx="308" cy="233" rx="15" ry="11" fill="#2B160B" transform="rotate(16 308 233)"/>
<circle cx="308" cy="231" r="29" fill="#2563EB" opacity="0.16"/>
<path d="M289,217 A29,29 0 0 1 311,205" fill="none" stroke="#FFFFFF" stroke-width="5" stroke-linecap="round" opacity="0.85"/>
<line x1="330" y1="253" x2="373" y2="296" stroke="#2B160B" stroke-width="18" stroke-linecap="round"/>
<line x1="332" y1="255" x2="369" y2="292" stroke="#C2410C" stroke-width="7" stroke-linecap="round"/>
<circle cx="308" cy="231" r="29" fill="none" stroke="#2B160B" stroke-width="11"/>
<circle cx="308" cy="231" r="23" fill="none" stroke="#FFF7ED" stroke-width="2" opacity="0.45"/>
</svg>