<svg xmlns="http://www.w3.org/2000/svg" viewBox="78 80 356 466"><g transform="translate(0.000,0.000) scale(1.000000)"><path d="M96,96 L186,150 L256,185 L326,150 L416,96 L396,250 L256,440 L116,250 Z" fill="#D97706"/><path d="M132,120 L186,150 L158,182 Z" fill="#7C3F16"/><path d="M380,120 L326,150 L354,182 Z" fill="#7C3F16"/><path d="M198,250 L314,250 L256,430 Z" fill="#FFF7ED"/><path d="M192,228 L232,222 L214,250 Z" fill="#2B160B"/><circle cx="306" cy="236" r="30" fill="#7C3F16"/><circle cx="306" cy="236" r="22" fill="#0E2540"/><circle cx="306" cy="236" r="13" fill="#2563EB"/><circle cx="306" cy="236" r="6" fill="#7DD3FC"/><path d="M243,372 L269,372 L256,392 Z" fill="#2B160B"/><path fill="#FFF7ED" d="M256,434 C264.8,469.2 264.8,469.2 300,478 C264.8,486.8 264.8,486.8 256,522 C247.2,486.8 247.2,486.8 212,478 C247.2,469.2 247.2,469.2 256,434 Z"/><path fill="#13869E" d="M256,440 C263.6,470.4 263.6,470.4 294,478 C263.6,485.6 263.6,485.6 256,516 C248.4,485.6 248.4,485.6 218,478 C248.4,470.4 248.4,470.4 256,440 Z"/><path fill="#FFF7ED" d="M190,467 C195.4,488.6 195.4,488.6 217,494 C195.4,499.4 195.4,499.4 190,521 C184.6,499.4 184.6,499.4 163,494 C184.6,488.6 184.6,488.6 190,467 Z"/><path fill="#13869E" d="M190,472 C194.4,489.6 194.4,489.6 212,494 C194.4,498.4 194.4,498.4 190,516 C185.6,498.4 185.6,498.4 168,494 C185.6,489.6 185.6,489.6 190,472 Z"/><path fill="#FFF7ED" d="M316,468 C320.4,485.6 320.4,485.6 338,490 C320.4,494.4 320.4,494.4 316,512 C311.6,494.4 311.6,494.4 294,490 C311.6,485.6 311.6,485.6 316,468 Z"/><path fill="#13869E" d="M316,473 C319.4,486.6 319.4,486.6 333,490 C319.4,493.4 319.4,493.4 316,507 C312.6,493.4 312.6,493.4 299,490 C312.6,486.6 312.6,486.6 316,473 Z"/><path fill="#FFF7ED" d="M392,96 C399.2,124.8 399.2,124.8 428,132 C399.2,139.2 399.2,139.2 392,168 C384.8,139.2 384.8,139.2 356,132 C384.8,124.8 384.8,124.8 392,96 Z"/><path fill="#13869E" d="M392,102 C398.0,126.0 398.0,126.0 422,132 C398.0,138.0 398.0,138.0 392,162 C386.0,138.0 386.0,138.0 362,132 C386.0,126.0 386.0,126.0 392,102 Z"/><path fill="#FFF7ED" d="M352,156 C356.4,173.6 356.4,173.6 374,178 C356.4,182.4 356.4,182.4 352,200 C347.6,182.4 347.6,182.4 330,178 C347.6,173.6 347.6,173.6 352,156 Z"/><path fill="#13869E" d="M352,161 C355.4,174.6 355.4,174.6 369,178 C355.4,181.4 355.4,181.4 352,195 C348.6,181.4 348.6,181.4 335,178 C348.6,174.6 348.6,174.6 352,161 Z"/></g></svg>