<svg xmlns="http://www.w3.org/2000/svg" viewBox="0 0 240 240" role="img"><defs><linearGradient id="brass" x1="0" y1="0" x2="0" y2="1"><stop offset="0" stop-color="#E7BB52"/><stop offset="0.5" stop-color="#C9921F"/><stop offset="1" stop-color="#8E6213"/></linearGradient><linearGradient id="shade" x1="0" y1="0" x2="0" y2="1"><stop offset="0" stop-color="#13869E"/><stop offset="1" stop-color="#0C6075"/></linearGradient><linearGradient id="lightcone" x1="0" y1="0" x2="0" y2="1"><stop offset="0" stop-color="#FFDE96" stop-opacity="0.95"/><stop offset="1" stop-color="#FFDE96" stop-opacity="0"/></linearGradient></defs><rect x="8" y="8" width="224" height="224" rx="54" fill="#FFF7ED" stroke="#ecdfd2"/><g transform="translate(-28.5,-35.7) scale(0.58)"><g><path d="M96,96 L186,150 L256,185 L326,150 L416,96 L396,250 L256,440 L116,250 Z" fill="#D97706"/><path d="M132,120 L186,150 L158,182 Z" fill="#7C3F16"/><path d="M380,120 L326,150 L354,182 Z" fill="#7C3F16"/><path d="M198,250 L314,250 L256,430 Z" fill="#FFF7ED"/><path d="M192,228 L232,222 L214,250 Z" fill="#2B160B"/><circle cx="306" cy="236" r="30" fill="#7C3F16"/><circle cx="306" cy="236" r="22" fill="#0E2540"/><circle cx="306" cy="236" r="13" fill="#2563EB"/><circle cx="306" cy="236" r="6" fill="#7DD3FC"/><circle cx="300" cy="229" r="3.5" fill="#F0F9FF" opacity="0.95"/><path d="M243,372 L269,372 L256,392 Z" fill="#2B160B"/><g transform="translate(85,276) scale(1.05)"><rect x="40" y="133" width="11" height="23" fill="#7E5128"/><rect x="121" y="133" width="11" height="23" fill="#7E5128"/><rect x="26" y="122" width="120" height="12" rx="3" fill="#A6743E"/><rect x="26" y="123.5" width="120" height="3" rx="1.5" fill="#C28E54" opacity="0.55"/><ellipse cx="86" cy="121" rx="46" ry="5.5" fill="#FFDE96" opacity="0.55"/><polygon points="60,92 112,92 134,121 38,121" fill="url(#lightcone)"/><rect x="60" y="112" width="52" height="10" rx="5" fill="url(#brass)"/><rect x="82" y="86" width="8" height="28" rx="2" fill="url(#brass)"/><path d="M50,90 L50,80 Q50,58 86,58 Q122,58 122,80 L122,90 Z" fill="url(#shade)"/><path d="M50,90 Q86,96 122,90 Z" fill="#0A4F63"/><ellipse cx="86" cy="91" rx="33" ry="4.5" fill="#FFE9B0" opacity="0.9"/><path d="M62,74 Q70,63 84,62" fill="none" stroke="#5FB6C9" stroke-width="4" stroke-linecap="round" opacity="0.7"/><circle cx="86" cy="56" r="5" fill="url(#brass)"/></g></g></g></svg>
