<svg xmlns="http://www.w3.org/2000/svg" viewBox="78 80 356 390"><g transform="translate(0.000,0.000) scale(1.000000)"><path d="M96,96 L186,150 L256,185 L326,150 L416,96 L396,250 L256,440 L116,250 Z" fill="#D97706"/><path d="M132,120 L186,150 L158,182 Z" fill="#7C3F16"/><path d="M380,120 L326,150 L354,182 Z" fill="#7C3F16"/><path d="M198,250 L314,250 L256,430 Z" fill="#FFF7ED"/><path d="M192,228 L232,222 L214,250 Z" fill="#2B160B"/><circle cx="306" cy="236" r="30" fill="#7C3F16"/><circle cx="306" cy="236" r="22" fill="#0E2540"/><circle cx="306" cy="236" r="13" fill="#2563EB"/><circle cx="306" cy="236" r="6" fill="#7DD3FC"/><path d="M243,372 L269,372 L256,392 Z" fill="#2B160B"/><g><rect x="272" y="330" width="150" height="112" rx="12" fill="#FFF7ED" stroke="#0F5132" stroke-width="11"/><path d="M281,341 L347,393 L413,341" fill="none" stroke="#0F5132" stroke-width="11" stroke-linejoin="round" stroke-linecap="round"/><path d="M281,432 L322,392 M413,432 L372,392" stroke="#0F5132" stroke-width="8" stroke-linecap="round"/></g></g></svg>