<svg viewBox="0 0 512 512" xmlns="http://www.w3.org/2000/svg"><defs><linearGradient id="bg" x1="0" y1="0" x2="0" y2="1"><stop offset="0" stop-color="#F1F0E7"/><stop offset="1" stop-color="#E6EAD9"/></linearGradient><linearGradient id="fur" x1="0" y1="0" x2="0" y2="1"><stop offset="0" stop-color="#E07B0A"/><stop offset="1" stop-color="#C2410C"/></linearGradient><linearGradient id="gold" x1="0" y1="0" x2="0" y2="1"><stop offset="0" stop-color="#FCE08A"/><stop offset="0.5" stop-color="#E3B345"/><stop offset="1" stop-color="#B07D1A"/></linearGradient></defs><rect width="512" height="512" rx="112" fill="url(#bg)"/><rect x="6" y="6" width="500" height="500" rx="108" fill="none" stroke="#CDD8C2" stroke-width="6"/><path d="M96,96 L186,150 L256,185 L326,150 L416,96 L396,250 L256,440 L116,250 Z" fill="url(#fur)"/><path d="M132,120 L186,150 L158,182 Z" fill="#7C3F16"/><path d="M380,120 L326,150 L354,182 Z" fill="#7C3F16"/><path d="M198,250 L314,250 L256,430 Z" fill="#FFF7ED"/><ellipse cx="208" cy="236" rx="17" ry="10" fill="#2B160B" transform="rotate(-18 208 236)"/><circle cx="306" cy="236" r="30" fill="#7C3F16"/><circle cx="306" cy="236" r="22" fill="#0E2540"/><circle cx="306" cy="236" r="13" fill="#2563EB"/><circle cx="306" cy="236" r="6" fill="#7DD3FC"/><circle cx="299" cy="228" r="4" fill="#F0F9FF" opacity="0.95"/><path d="M243,372 L269,372 L256,392 Z" fill="#2B160B"/><g stroke="#6B4310" stroke-width="5" stroke-linejoin="round" stroke-linecap="round"><circle cx="86" cy="414" r="10" fill="url(#gold)"/><circle cx="100" cy="388" r="8" fill="url(#gold)"/><circle cx="100" cy="440" r="8" fill="url(#gold)"/><path fill="url(#gold)" fill-rule="evenodd" d="M92,414 a42,42 0 1,0 84,0 a42,42 0 1,0 -84,0 Z M116,414 a18,18 0 1,0 36,0 a18,18 0 1,0 -36,0 Z"/><circle cx="180" cy="414" r="11" fill="url(#gold)"/><rect x="176" y="406" width="186" height="16" rx="6" fill="url(#gold)"/><path fill="url(#gold)" d="M350,406 L392,406 L392,452 L380,452 L380,432 L370,432 L370,452 L360,452 L360,440 L350,440 Z"/></g><rect x="182" y="408" width="172" height="4" rx="2" fill="#FFF3C4" opacity="0.85"/></svg>
