<svg xmlns="http://www.w3.org/2000/svg" viewBox="78 80 356 399"><g transform="translate(0.000,0.000) scale(1.000000)"><g><path fill-rule="evenodd" fill="#436955" d="M110,418 a40,40 0 1,0 80,0 a40,40 0 1,0 -80,0 Z M133,418 a17,17 0 1,0 34,0 a17,17 0 1,0 -34,0 Z"/><rect x="182" y="407" width="192" height="22" rx="11" fill="#436955"/><rect x="314" y="425" width="20" height="30" rx="6" fill="#436955"/><rect x="348" y="425" width="20" height="20" rx="6" fill="#436955"/></g><path d="M96,96 L186,150 L256,185 L326,150 L416,96 L396,250 L256,440 L116,250 Z" fill="#D97706"/><path d="M132,120 L186,150 L158,182 Z" fill="#7C3F16"/><path d="M380,120 L326,150 L354,182 Z" fill="#7C3F16"/><path d="M198,250 L314,250 L256,430 Z" fill="#FFF7ED"/><path d="M192,228 L232,222 L214,250 Z" fill="#2B160B"/><circle cx="306" cy="236" r="30" fill="#7C3F16"/><circle cx="306" cy="236" r="22" fill="#0E2540"/><circle cx="306" cy="236" r="13" fill="#2563EB"/><circle cx="306" cy="236" r="6" fill="#7DD3FC"/><path d="M243,372 L269,372 L256,392 Z" fill="#2B160B"/></g></svg>