<svg xmlns="http://www.w3.org/2000/svg" viewBox="0 0 512 512"><rect x="0" y="0" width="512" height="512" rx="112" fill="#FFF7ED"/><g transform="translate(47.628,-14.396) scale(0.813953)"><path d="M96,96 L186,150 L256,185 L326,150 L416,96 L396,250 L256,440 L116,250 Z" fill="#D97706"/><path d="M132,120 L186,150 L158,182 Z" fill="#7C3F16"/><path d="M380,120 L326,150 L354,182 Z" fill="#7C3F16"/><path d="M198,250 L314,250 L256,430 Z" fill="#FFF7ED"/><path d="M192,228 L232,222 L214,250 Z" fill="#2B160B"/><circle cx="306" cy="236" r="30" fill="#7C3F16"/><circle cx="306" cy="236" r="22" fill="#0E2540"/><circle cx="306" cy="236" r="13" fill="#2563EB"/><circle cx="306" cy="236" r="6" fill="#7DD3FC"/><path d="M243,372 L269,372 L256,392 Z" fill="#2B160B"/><path fill-rule="evenodd" fill="#9F1239" d="M262,236 a44,44 0 1,0 88,0 a44,44 0 1,0 -88,0 Z M268.5,236 a37.5,37.5 0 1,0 75.0,0 a37.5,37.5 0 1,0 -75.0,0 Z"/><circle cx="340" cy="273" r="4.2" fill="#9F1239"/><circle cx="348" cy="288" r="4.2" fill="#9F1239"/><circle cx="354" cy="305" r="4.2" fill="#9F1239"/><circle cx="357" cy="323" r="4.2" fill="#9F1239"/><path fill-rule="evenodd" fill="#9F1239" d="M346.5,343 a10.5,10.5 0 1,0 21.0,0 a10.5,10.5 0 1,0 -21.0,0 Z M352.4,343 a4.6,4.6 0 1,0 9.2,0 a4.6,4.6 0 1,0 -9.2,0 Z"/></g><rect x="173.71" y="351.94" width="164.58" height="96.32" rx="48.16" fill="#9F1239"/><path transform="translate(208.708,419.696) scale(0.056000,-0.056000)" fill="#FFFFFF" d="M339 252H233V0H62V702H339Q423 702 481.0 673.0Q539 644 568.0 593.0Q597 542 597 476Q597 415 569.0 364.5Q541 314 483.0 283.0Q425 252 339 252ZM423 476Q423 518 399.0 541.0Q375 564 326 564H233V388H326Q375 388 399.0 411.0Q423 434 423 476Z"/><path transform="translate(243.652,419.696) scale(0.056000,-0.056000)" fill="#FFFFFF" d="M408 564V383H361Q297 383 265.0 355.5Q233 328 233 259V0H62V558H233V465Q263 511 308.0 537.5Q353 564 408 564Z"/><path transform="translate(267.620,419.696) scale(0.056000,-0.056000)" fill="#FFFFFF" d="M28 279Q28 365 66.0 430.5Q104 496 170.0 531.0Q236 566 318 566Q400 566 466.0 531.0Q532 496 570.0 430.5Q608 365 608 279Q608 193 569.5 127.5Q531 62 464.5 27.0Q398 -8 316 -8Q234 -8 168.5 27.0Q103 62 65.5 127.0Q28 192 28 279ZM434 279Q434 346 400.5 382.0Q367 418 318 418Q268 418 235.0 382.5Q202 347 202 279Q202 212 234.5 176.0Q267 140 316 140Q365 140 399.5 176.0Q434 212 434 279Z"/></svg>