<svg xmlns="http://www.w3.org/2000/svg" viewBox="0 0 512 512"><rect x="0" y="0" width="512" height="512" rx="112" fill="#FFF7ED"/><g transform="translate(47.628,30.535) scale(0.813953)"><path d="M96,96 L186,150 L256,185 L326,150 L416,96 L396,250 L256,440 L116,250 Z" fill="#D97706"/><path d="M132,120 L186,150 L158,182 Z" fill="#7C3F16"/><path d="M380,120 L326,150 L354,182 Z" fill="#7C3F16"/><path d="M198,250 L314,250 L256,430 Z" fill="#FFF7ED"/><path d="M192,228 L232,222 L214,250 Z" fill="#2B160B"/><circle cx="306" cy="236" r="30" fill="#7C3F16"/><circle cx="306" cy="236" r="22" fill="#0E2540"/><circle cx="306" cy="236" r="13" fill="#2563EB"/><circle cx="306" cy="236" r="6" fill="#7DD3FC"/><path d="M243,372 L269,372 L256,392 Z" fill="#2B160B"/><g><rect x="300" y="300" width="116" height="158" rx="18" fill="#FFF7ED" stroke="#2B160B" stroke-width="10"/><rect x="318" y="322" width="80" height="104" rx="6" fill="#2B160B"/><path d="M358,338 L392,404 H324 Z" fill="#FFF7ED"/><rect x="352.5" y="352" width="11" height="26" rx="5.5" fill="#2B160B"/><circle cx="358" cy="388" r="7" fill="#2B160B"/><rect x="342" y="436" width="32" height="7" rx="3.5" fill="#2B160B"/></g></g></svg>