<svg xmlns="http://www.w3.org/2000/svg" width="512" height="512" viewBox="0 0 512 512" font-family="Poppins,Arial,sans-serif"><defs><linearGradient id="lh" x1="0" y1="0" x2="0" y2="1"><stop offset="0" stop-color="#FFE6C8"/><stop offset="1" stop-color="#FFC98D"/></linearGradient></defs><rect width="512" height="512" rx="112" fill="url(#lh)"/><rect x="86.0" y="105.6" width="340.0" height="312.8" rx="47.6" fill="#F4ECDD"/><rect x="188.0" y="83.7" width="18.7" height="50.0" rx="9.5" fill="#C9B8A0"/><rect x="300.2" y="83.7" width="18.7" height="50.0" rx="9.5" fill="#C9B8A0"/><rect x="86.0" y="105.6" width="340.0" height="93.8" rx="47.6" fill="#F4A261"/><rect x="86.0" y="152.5" width="340.0" height="46.9" fill="#F4A261"/><text x="256.0" y="173.2" text-anchor="middle" font-size="58.2" font-weight="800" font-family="Poppins,Arial" fill="#FFF7ED">Orga</text><circle cx="140.4" cy="247.6" r="15.3" fill="#E7DBC7"/><circle cx="217.5" cy="247.6" r="15.3" fill="#E7DBC7"/><circle cx="294.5" cy="247.6" r="15.3" fill="#E7DBC7"/><circle cx="371.6" cy="247.6" r="15.3" fill="#E7DBC7"/><circle cx="140.4" cy="317.4" r="15.3" fill="#E7DBC7"/><circle cx="217.5" cy="317.4" r="15.3" fill="#E7DBC7"/><circle cx="294.5" cy="317.4" r="15.3" fill="#E7DBC7"/><circle cx="371.6" cy="317.4" r="15.3" fill="#E7DBC7"/><circle cx="140.4" cy="387.1" r="15.3" fill="#E7DBC7"/><circle cx="217.5" cy="387.1" r="15.3" fill="#E7DBC7"/><circle cx="294.5" cy="387.1" r="15.3" fill="#E7DBC7"/><circle cx="371.6" cy="387.1" r="15.3" fill="#E7DBC7"/><g transform="translate(115.87,173.16) scale(0.5474)"><path d="M96,96 L186,150 L256,185 L326,150 L416,96 L396,250 L256,440 L116,250 Z" fill="#D97706"/><path d="M132,120 L186,150 L158,182 Z" fill="#7C3F16"/><path d="M380,120 L326,150 L354,182 Z" fill="#7C3F16"/><path d="M198,250 L314,250 L256,430 Z" fill="#FFF7ED"/><path d="M192,228 L232,222 L214,250 Z" fill="#2B160B"/><circle cx="306" cy="236" r="30" fill="#7C3F16"/><circle cx="306" cy="236" r="22" fill="#0E2540"/><circle cx="306" cy="236" r="13" fill="#2563EB"/><circle cx="306" cy="236" r="6" fill="#7DD3FC"/><path d="M243,372 L269,372 L256,392 Z" fill="#2B160B"/></g></svg>