<svg xmlns="http://www.w3.org/2000/svg" viewBox="-16 -42 544 536"><g transform="translate(0.000,0.000) scale(1.000000)"><g><rect x="170" y="-22" width="26" height="58" rx="13" fill="#7C3F16"/><rect x="316" y="-22" width="26" height="58" rx="13" fill="#7C3F16"/><rect x="6" y="8" width="500" height="462" rx="40" fill="#FFF7ED" stroke="#B4652A" stroke-width="9"/><path d="M6,48 A40,40 0 0 1 46,8 H466 A40,40 0 0 1 506,48 V86 H6 Z" fill="#B4652A"/><path transform="translate(178.840,66.000) scale(0.060000,-0.060000)" fill="#FFF7ED" d="M33 353Q33 456 81.5 538.0Q130 620 212.5 666.0Q295 712 394 712Q493 712 575.5 666.0Q658 620 705.5 538.0Q753 456 753 353Q753 250 705.0 167.5Q657 85 575.0 39.0Q493 -7 394 -7Q295 -7 212.5 39.0Q130 85 81.5 167.5Q33 250 33 353ZM579 353Q579 446 528.5 501.5Q478 557 394 557Q309 557 258.5 502.0Q208 447 208 353Q208 260 258.5 204.5Q309 149 394 149Q478 149 528.5 205.0Q579 261 579 353Z"/><path transform="translate(226.000,66.000) scale(0.060000,-0.060000)" fill="#FFF7ED" d="M408 564V383H361Q297 383 265.0 355.5Q233 328 233 259V0H62V558H233V465Q263 511 308.0 537.5Q353 564 408 564Z"/><path transform="translate(251.680,66.000) scale(0.060000,-0.060000)" fill="#FFF7ED" d="M446 479V558H617V1Q617 -76 586.5 -138.5Q556 -201 493.5 -238.0Q431 -275 338 -275Q214 -275 137.0 -216.5Q60 -158 49 -58H218Q226 -90 256.0 -108.5Q286 -127 330 -127Q383 -127 414.5 -96.5Q446 -66 446 1V80Q421 41 377.0 16.5Q333 -8 274 -8Q205 -8 149.0 27.5Q93 63 60.5 128.5Q28 194 28 280Q28 366 60.5 431.0Q93 496 149.0 531.0Q205 566 274 566Q333 566 377.5 542.0Q422 518 446 479ZM324 417Q273 417 237.5 380.5Q202 344 202 280Q202 216 237.5 178.5Q273 141 324 141Q375 141 410.5 178.0Q446 215 446 279Q446 343 410.5 380.0Q375 417 324 417Z"/><path transform="translate(292.420,66.000) scale(0.060000,-0.060000)" fill="#FFF7ED" d="M274 566Q333 566 377.5 542.0Q422 518 446 479V558H617V0H446V79Q421 40 376.5 16.0Q332 -8 273 -8Q205 -8 149.0 27.5Q93 63 60.5 128.5Q28 194 28 280Q28 366 60.5 431.0Q93 496 149.0 531.0Q205 566 274 566ZM324 417Q273 417 237.5 380.5Q202 344 202 280Q202 216 237.5 178.5Q273 141 324 141Q375 141 410.5 178.0Q446 215 446 279Q446 343 410.5 380.0Q375 417 324 417Z"/><circle cx="62" cy="152" r="20" fill="#EAD4C3"/><circle cx="174" cy="152" r="20" fill="#EAD4C3"/><circle cx="338" cy="152" r="20" fill="#EAD4C3"/><circle cx="450" cy="152" r="20" fill="#EAD4C3"/><circle cx="62" cy="262" r="20" fill="#EAD4C3"/><circle cx="174" cy="262" r="20" fill="#EAD4C3"/><circle cx="338" cy="262" r="20" fill="#EAD4C3"/><circle cx="450" cy="262" r="20" fill="#EAD4C3"/><circle cx="62" cy="372" r="20" fill="#EAD4C3"/><circle cx="174" cy="372" r="20" fill="#EAD4C3"/><circle cx="338" cy="372" r="20" fill="#EAD4C3"/><circle cx="450" cy="372" r="20" fill="#EAD4C3"/><circle cx="62" cy="442" r="20" fill="#EAD4C3"/><circle cx="174" cy="442" r="20" fill="#EAD4C3"/><circle cx="338" cy="442" r="20" fill="#EAD4C3"/><circle cx="450" cy="442" r="20" fill="#EAD4C3"/></g><path d="M96,96 L186,150 L256,185 L326,150 L416,96 L396,250 L256,440 L116,250 Z" fill="#D97706"/><path d="M132,120 L186,150 L158,182 Z" fill="#7C3F16"/><path d="M380,120 L326,150 L354,182 Z" fill="#7C3F16"/><path d="M198,250 L314,250 L256,430 Z" fill="#FFF7ED"/><path d="M192,228 L232,222 L214,250 Z" fill="#2B160B"/><circle cx="306" cy="236" r="30" fill="#7C3F16"/><circle cx="306" cy="236" r="22" fill="#0E2540"/><circle cx="306" cy="236" r="13" fill="#2563EB"/><circle cx="306" cy="236" r="6" fill="#7DD3FC"/><path d="M243,372 L269,372 L256,392 Z" fill="#2B160B"/></g></svg>