<svg xmlns="http://www.w3.org/2000/svg" viewBox="0 0 512 512" width="512" height="512"><defs><linearGradient id="ic" x1="0" y1="0" x2="0" y2="1"><stop offset="0" stop-color="#9F1239"/><stop offset="1" stop-color="#2B1014"/></linearGradient></defs><rect width="512" height="512" rx="120" fill="url(#ic)"/><g transform="translate(322,300) scale(1.0)"><path d="M0,0 H120 L168,48 V250 H0 Z" fill="#FFF7ED" stroke="#7F1D1D" stroke-width="8" stroke-linejoin="round"/><path d="M120,0 V48 H168 Z" fill="#E7C3CC" stroke="#7F1D1D" stroke-width="8" stroke-linejoin="round"/><g stroke="#9F1239" stroke-width="12" stroke-linecap="round"><line x1="30" y1="100" x2="138" y2="100"/><line x1="30" y1="144" x2="138" y2="144"/><line x1="30" y1="188" x2="100" y2="188"/></g></g><g transform="translate(40,30) scale(0.78)"><path d="M96,96 L186,150 L256,185 L326,150 L416,96 L396,250 L256,440 L116,250 Z" fill="#D97706"/><path d="M132,120 L186,150 L158,182 Z" fill="#7C3F16"/><path d="M380,120 L326,150 L354,182 Z" fill="#7C3F16"/><path d="M198,250 L314,250 L256,430 Z" fill="#FFF7ED"/><path d="M192,228 L232,222 L214,250 Z" fill="#2B160B"/><circle cx="306" cy="236" r="30" fill="#7C3F16"/><circle cx="306" cy="236" r="22" fill="#0E2540"/><circle cx="306" cy="236" r="13" fill="#2563EB"/><circle cx="306" cy="236" r="6" fill="#7DD3FC"/><path d="M243,372 L269,372 L256,392 Z" fill="#2B160B"/></g></svg>